<?xml version="1.0" encoding="utf-8"?>
<!-- Generator: Adobe Illustrator 16.0.0, SVG Export Plug-In . SVG Version: 6.00 Build 0)  -->
<!DOCTYPE svg PUBLIC "-//W3C//DTD SVG 1.1//EN" "http://www.w3.org/Graphics/SVG/1.1/DTD/svg11.dtd">
<svg version="1.1" id="Layer_1" xmlns="http://www.w3.org/2000/svg" xmlns:xlink="http://www.w3.org/1999/xlink" x="0px" y="0px"
	 width="200px" height="76px" viewBox="0 0 200 76" enable-background="new 0 0 200 76" xml:space="preserve">
	<g style="fill: #333">
		<path d="M107.492,8.116c1.049-2.032,2.347-3.961,3.16-6.095c-0.045-0.486-0.576-0.294-0.903-0.339
			c-1.163,1.998-2.167,4.154-3.499,5.982c-5.136-2.37-12.359-2.37-17.495,0l-3.387-5.982h-0.564c-0.361,0.147-0.181,0.519-0.226,0.79
			c0.892,1.964,2.269,3.736,3.047,5.756c-6.174,3.048-10.204,9.369-10.271,16.141h40.408c0.067-3.578-1.185-6.603-2.821-9.481
			C113.203,12.022,110.155,9.708,107.492,8.116z M89.883,16.13c-0.282,0.564-0.858,0.892-1.467,0.903
			c-0.632-0.045-1.298-0.26-1.58-0.903c-0.181-0.519-0.17-1.23,0.112-1.693c0.633-1.106,2.472-0.87,2.935,0.226
			C90.053,15.08,90.053,15.712,89.883,16.13z M108.168,16.356c-0.327,0.53-0.857,0.553-1.354,0.677
			c-0.7,0.067-1.241-0.474-1.58-1.016c-0.17-0.383-0.17-0.97,0-1.354c0.191-0.417,0.632-0.711,1.016-0.903
			c0.937-0.203,1.715,0.237,2.145,1.016C108.609,15.317,108.439,15.893,108.168,16.356z"/>
		<path d="M70.583,25.16c-1.66,0.203-3.116,1.603-3.612,3.16l-0.113,20.994l0.452,1.242
			c1.039,1.682,2.833,2.482,4.854,2.258c1.456-0.215,3.036-1.593,3.386-3.049l0.113-20.994l-0.338-1.129
			C74.397,25.939,72.637,24.855,70.583,25.16z"/>
		<path d="M128.26,28.547l-0.564-1.355c-1.32-2.009-4.255-2.664-6.208-1.355c-1.083,0.745-1.829,1.829-2.031,3.048
			l0.112,20.769c0.305,1.275,1.479,2.483,2.71,2.935c1.24,0.395,2.844,0.282,3.949-0.338c1.332-0.848,1.965-2.19,2.145-3.612
			L128.26,28.547z"/>
		<path d="M77.58,56.539l0.564,1.24c1.603,2.653,4.763,1.999,7.45,2.258v9.934c0.057,0.914,0.271,1.762,0.79,2.482
			c1.14,1.58,3.025,2.145,4.967,1.693c1.5-0.361,2.562-1.783,3.047-3.16l0.226-11.062h5.869l0.226,0.226v10.723l0.564,1.355
			c1.117,1.568,2.766,2.313,4.74,2.031c1.502-0.406,2.957-1.615,3.387-3.161l0.113-10.948l0.226-0.226l4.628-0.113
			c1.513-0.396,2.9-2.032,3.273-3.499l0.112-30.25H77.467L77.58,56.539z"/>
	</g>
</svg>
