<?xml version="1.0" encoding="utf-8"?>
<!-- Generator: Adobe Illustrator 16.0.0, SVG Export Plug-In . SVG Version: 6.00 Build 0)  -->
<!DOCTYPE svg PUBLIC "-//W3C//DTD SVG 1.1//EN" "http://www.w3.org/Graphics/SVG/1.1/DTD/svg11.dtd">
<svg version="1.1" id="Layer_1" xmlns="http://www.w3.org/2000/svg" xmlns:xlink="http://www.w3.org/1999/xlink" x="0px" y="0px"
	 width="200px" height="76px" >
<g style="fill: #333">
	<path d="M101.56,1c-3.613,0-7.104,0.522-10.403,1.491v20.131c2.982-1.977,6.558-3.128,10.403-3.128
		c10.416,0,18.859,8.443,18.859,18.859c0,10.415-8.443,18.858-18.859,18.858c-10.416,0-18.798-8.443-18.798-18.858
		c0-0.512-0.04-1.018,0-1.519V6.149c-10.817,6.425-18.068,18.224-18.068,31.717c0,20.361,16.505,36.867,36.866,36.867
		c20.36,0,36.866-16.506,36.866-36.867C138.426,17.505,121.92,1,101.56,1z"/>
	<circle cx="101.377" cy="38.184" r="10.95"/>
</g>
</svg>
