<?xml version="1.0" encoding="utf-8"?>
<!-- Generator: Adobe Illustrator 16.0.0, SVG Export Plug-In . SVG Version: 6.00 Build 0)  -->
<!DOCTYPE svg PUBLIC "-//W3C//DTD SVG 1.1//EN" "http://www.w3.org/Graphics/SVG/1.1/DTD/svg11.dtd">
<svg version="1.1" id="Layer_1" xmlns="http://www.w3.org/2000/svg" xmlns:xlink="http://www.w3.org/1999/xlink" x="0px" y="0px"
	 width="200px" height="76px" viewBox="0 0 200 76" enable-background="new 0 0 200 76" xml:space="preserve">
	<g style="fill: #333">
		<path d="M76.605,9.833c-9.003-4.544-22.039-3.67-30.21,2.048C35.194,19.284,30.073,31.809,32.762,44.95
			c1.835,9.857,10.518,19.735,20.184,22.785c11.222,3.99,23.895,1.047,32.258-7.125c9.238-8.705,11.927-23.17,6.956-34.712
			C89.471,19.284,83.219,12.691,76.605,9.833z M70.76,49.517l0.064,2.304l-8.663,0.043l-0.042-27.288l0.086-0.107h2.303l0.064,24.941
			l0.107,0.106H70.76z M73.683,62.253c-9.431,4.203-21.42,1.942-28.675-5.375c-7.445-7.212-9.941-18.861-5.931-28.462
			c3.521-9.238,13.207-16.022,22.978-16.386h2.453l0.064,2.347c-9.046-0.384-17.174,4.075-21.868,11.926
			c-4.267,6.977-4.182,17.431,0.299,24.279c5.483,8.598,14.892,12.822,25.005,10.967c8.512-1.388,16.684-9.281,18.476-17.73
			c0.362-1.387,0.555-2.838,0.619-4.352l-16.193-0.043l-0.043-2.305l18.626-0.064C90.025,47.81,83.582,58.071,73.683,62.253z
			 M56.679,29.888c-0.683,1.195-1.877,2.006-3.222,2.006c-1.408,0.043-2.688-0.683-3.371-1.941c-0.64-1.003-0.533-2.646,0.043-3.648
			c0.854-1.345,2.347-2.027,3.947-1.792c0.917,0.278,1.834,0.725,2.41,1.643C57.19,27.136,57.254,28.843,56.679,29.888z"/>
		<path d="M154.01,42.646c2.112-0.085,4.267-0.021,6.4-0.042l0.105,0.085c-0.341,1.579-0.831,3.115-1.94,4.353
			c-1.558,1.622-4.14,1.878-6.188,1.195c-2.39-0.96-3.647-3.457-4.16-5.739c-0.726-4.182-0.704-9.089,1.898-12.396
			c1.516-1.771,3.926-2.325,6.103-1.579c1.621,0.576,2.923,2.305,3.008,4.032h10.604c-0.106-1.835-0.533-3.563-1.174-5.163
			c-0.938-2.069-2.88-3.819-4.821-4.971c-5.824-3.285-14.807-3.029-20.226,0.982c-6.721,5.184-7.531,14.466-5.419,22.21
			c1.237,4.949,5.91,9.941,11.157,10.496c4.417,0.533,9.004-0.17,11.735-3.947h0.085l0.064,3.244
			c2.838,0.085,5.739,0.021,8.598,0.042V35.436h-15.873L154.01,42.646z"/>
		<polygon points="119.767,21.034 109.675,21.034 109.718,55.447 134.871,55.405 134.871,46.85 119.81,46.785 	"/>
	</g>
</svg>
