<?xml version="1.0" encoding="utf-8"?>
<!-- Generator: Adobe Illustrator 16.0.0, SVG Export Plug-In . SVG Version: 6.00 Build 0)  -->
<!DOCTYPE svg PUBLIC "-//W3C//DTD SVG 1.1//EN" "http://www.w3.org/Graphics/SVG/1.1/DTD/svg11.dtd">
<svg version="1.1" id="Layer_1" xmlns="http://www.w3.org/2000/svg" xmlns:xlink="http://www.w3.org/1999/xlink" x="0px" y="0px"
	 width="200px" height="76px" viewBox="0 0 200 76" enable-background="new 0 0 200 76" xml:space="preserve">
<g style="fill: #c5a47e">
	<path fill-rule="evenodd" clip-rule="evenodd" d="M9.383,35.91v-2.595h3.02c5.456,0,8.475-2.861,8.475-6.518
	c0-3.76-3.019-6.566-8.475-6.566H1.438v1.06c3.55,0,4.185,0.848,4.185,6.143v8.476c0,5.296-0.635,6.197-4.185,6.197v1.061h12.13
	v-1.061C10.019,42.107,9.383,41.206,9.383,35.91z M16.746,26.798c0,2.491-1.377,4.557-4.343,4.557h-3.02v-9.215h3.02
	C15.369,22.139,16.746,24.257,16.746,26.798z"/>
	<path fill-rule="evenodd" clip-rule="evenodd" d="M38.797,33.633h-6.992l3.497-8.105L38.797,33.633z M30.957,35.591
		h8.688l1.06,2.438c1.324,3.125,0.954,4.026-2.861,4.026v1.113h11.865v-1.113c-2.806,0-3.442-0.636-5.19-4.608L36.731,19.33H35.99
		l-7.788,18.116c-1.748,3.973-2.225,4.608-5.456,4.608v1.113h10.012v-1.113c-4.185,0-4.185-0.901-2.861-4.026L30.957,35.591z"/>
	<path fill-rule="evenodd" clip-rule="evenodd" d="M57.493,27.435v8.476c0,5.296-0.636,6.197-4.185,6.197v1.061
		h10.329v-1.061c-3.549,0-4.185-0.901-4.185-6.197V25.528l15.415,18.487h1.006v-16.58c0-5.295,0.635-6.143,4.184-6.143v-1.06H69.729
		v1.06c3.548,0,4.185,0.848,4.185,6.143v9.535l-14.09-16.738h-6.515v1.06C56.857,21.292,57.493,22.139,57.493,27.435z"/>
	<path fill-rule="evenodd" clip-rule="evenodd" d="M84.893,43.168h11.231c9.004,0,12.923-5.192,12.923-11.495
		c0-6.251-3.919-11.441-12.923-11.441H84.893v1.06c3.55,0,4.186,0.848,4.186,6.143v8.476c0,5.296-0.635,6.197-4.186,6.197V43.168z
		 M104.65,31.673c0,4.237-1.376,9.533-8.368,9.533h-0.423c-2.649,0-3.021-0.582-3.021-4.024V22.139c0.9,0,3.125,0,3.443,0
		C103.274,22.139,104.65,27.488,104.65,31.673z"/>
	<path fill-rule="evenodd" clip-rule="evenodd" d="M136.125,31.673c0,4.607-2.329,10.329-8.58,10.329
		c-6.25,0-8.582-5.722-8.582-10.329c0-4.555,2.332-10.33,8.582-10.33C133.796,21.343,136.125,27.118,136.125,31.673z M140.47,31.673
		c0-6.728-5.827-12.343-12.925-12.343s-12.926,5.615-12.926,12.343c0,6.833,5.828,12.395,12.926,12.395S140.47,38.506,140.47,31.673z
		"/>
	<path fill-rule="evenodd" clip-rule="evenodd" d="M158.399,33.209c3.972-0.529,6.408-3.179,6.408-6.411
		c0-3.76-3.018-6.566-8.475-6.566h-10.965v1.06c3.551,0,4.184,0.848,4.184,6.143v8.476c0,5.296-0.633,6.197-4.184,6.197v1.061h12.13
		v-1.061c-3.549,0-4.185-0.901-4.185-6.197v-2.595h1.484l7.204,9.853h6.781v-1.061c-2.544-0.37-4.981-2.437-7.099-4.926
		L158.399,33.209z M160.676,26.798c0,2.491-1.375,4.557-4.343,4.557h-3.02v-9.215h3.02C159.301,22.139,160.676,24.257,160.676,26.798
		z"/>
	<path fill-rule="evenodd" clip-rule="evenodd" d="M187.421,33.633h-6.991l3.497-8.105L187.421,33.633z
		 M179.581,35.591h8.688l1.058,2.438c1.324,3.125,0.954,4.026-2.859,4.026v1.113h11.863v-1.113c-2.806,0-3.441-0.636-5.189-4.608
		l-7.785-18.116h-0.743l-7.787,18.116c-1.748,3.973-2.225,4.608-5.453,4.608v1.113h10.01v-1.113c-4.185,0-4.185-0.901-2.861-4.026
		L179.581,35.591z"/>
	<path d="M198.331,22.106c0,1.563-1.259,2.833-2.823,2.833c-1.563,0-2.832-1.269-2.832-2.833
		s1.269-2.833,2.832-2.833C197.072,19.273,198.331,20.542,198.331,22.106z M196.474,23.848l-1.117-1.5h-0.278v0.401
		c0,0.805,0.109,0.939,0.635,0.939v0.16h-1.804v-0.16c0.535,0,0.643-0.134,0.643-0.939v-1.287c0-0.804-0.107-0.938-0.643-0.938
		v-0.161h1.741c0.742,0,1.206,0.429,1.206,1c0,0.492-0.366,0.894-0.974,0.974l0.51,0.59c0.321,0.394,0.759,0.76,1.108,0.76
		c0.348-0.438,0.553-0.983,0.553-1.582c0-1.412-1.144-2.547-2.546-2.547c-1.412,0-2.547,1.135-2.547,2.547
		c0,1.404,1.135,2.547,2.547,2.547c0.723,0,1.395-0.313,1.858-0.805H196.474z M195.606,20.659h-0.528v1.402h0.528
		c0.455,0,0.67-0.321,0.67-0.697C196.276,20.98,196.062,20.659,195.606,20.659z"/>
	<path d="M114.649,58.539v-0.321c1.011,0,1.209-0.262,1.209-1.795v-0.766c0-1.532-0.198-1.778-1.209-1.778v-0.321
		l2.299-0.384v3.249c0,1.533,0.184,1.795,1.211,1.795v0.321H114.649z M116.396,51.673c-0.367,0-0.675-0.306-0.675-0.689
		c0-0.368,0.308-0.674,0.675-0.674s0.674,0.306,0.674,0.674C117.069,51.367,116.763,51.673,116.396,51.673z"/>
	<path d="M123.46,53.174c1.38,0,1.992,0.981,1.992,2.284v0.965c0,1.533,0.184,1.795,1.211,1.795v0.321h-3.51v-0.321
		c0.995,0,1.21-0.262,1.21-1.795v-0.888c0-0.996-0.351-1.64-1.271-1.64c-0.844,0-1.763,0.688-1.763,1.532v0.995
		c0,1.578,0.122,1.795,1.072,1.795v0.321h-3.372v-0.321c1.013,0,1.211-0.262,1.211-1.795v-0.766c0-1.532-0.198-1.778-1.211-1.778
		v-0.321l2.04-0.384c0.076,0.155,0.214,0.783,0.26,1.104C121.744,53.758,122.448,53.174,123.46,53.174z"/>
	<path d="M127.382,53.972v-0.367c0.92-0.199,1.257-0.859,1.364-1.854h0.522v1.685h1.332v0.536h-1.332v3.095
		c0,0.736,0.197,1.12,0.688,1.12c0.276,0,0.644-0.2,0.996-0.536l0.261,0.26c-0.43,0.521-1.104,0.889-1.609,0.889
		c-0.843,0-1.425-0.536-1.425-1.732v-3.095H127.382z"/>
	<path d="M135.428,58.156c0.506,0,1.241-0.292,1.685-0.706l0.276,0.337c-0.537,0.566-1.471,1.012-2.345,1.012
		c-1.686,0-2.835-1.271-2.835-2.82c0-1.623,1.41-2.805,2.835-2.805c1.363,0,2.451,1.104,2.085,2.423h-3.693
		C133.252,57.036,133.849,58.156,135.428,58.156z M136.071,55.029c0.168-0.49-0.093-1.241-1.104-1.241
		c-0.659,0-1.226,0.49-1.439,1.241H136.071z"/>
	<path d="M143.027,54.846c-0.29,0-0.535-0.262-0.535-0.552c0-0.322-0.185-0.506-0.491-0.506
		c-0.353,0-1.18,0.567-1.18,1.792v0.843c0,1.533,0.184,1.795,1.21,1.795v0.321h-3.509v-0.321c1.011,0,1.211-0.262,1.211-1.795
		v-0.766c0-1.532-0.2-1.778-1.211-1.778v-0.321l2.038-0.384c0.077,0.155,0.214,0.783,0.261,1.104
		c0.306-0.613,0.996-1.104,1.609-1.104c0.843,0,1.21,0.567,1.21,0.951C143.641,54.462,143.503,54.846,143.027,54.846z"/>
	<path d="M148.973,53.174c1.38,0,1.992,0.981,1.992,2.284v0.965c0,1.533,0.185,1.795,1.212,1.795v0.321h-3.51v-0.321
		c0.996,0,1.21-0.262,1.21-1.795v-0.888c0-0.996-0.353-1.64-1.271-1.64c-0.843,0-1.763,0.688-1.763,1.532v0.995
		c0,1.578,0.123,1.795,1.073,1.795v0.321h-3.371v-0.321c1.011,0,1.21-0.262,1.21-1.795v-0.766c0-1.532-0.199-1.778-1.21-1.778
		v-0.321l2.037-0.384c0.076,0.155,0.215,0.783,0.261,1.104C147.257,53.758,147.962,53.174,148.973,53.174z"/>
	<path d="M156.421,58.156c0.505,0,1.24-0.292,1.686-0.706l0.274,0.337c-0.535,0.566-1.47,1.012-2.344,1.012
		c-1.686,0-2.835-1.271-2.835-2.82c0-1.623,1.41-2.805,2.835-2.805c1.364,0,2.452,1.104,2.085,2.423h-3.693
		C154.245,57.036,154.841,58.156,156.421,58.156z M157.063,55.029c0.169-0.49-0.091-1.241-1.103-1.241
		c-0.658,0-1.226,0.49-1.441,1.241H157.063z"/>
	<path d="M159.362,53.972v-0.367c0.92-0.199,1.257-0.859,1.364-1.854h0.521v1.685h1.332v0.536h-1.332v3.095
		c0,0.736,0.2,1.12,0.689,1.12c0.276,0,0.643-0.2,0.996-0.536l0.262,0.26c-0.43,0.521-1.104,0.889-1.61,0.889
		c-0.842,0-1.425-0.536-1.425-1.732v-3.095H159.362z"/>
	<path d="M172.111,54.846c-0.291,0-0.536-0.262-0.536-0.552c0-0.322-0.184-0.506-0.49-0.506
		c-0.353,0-1.18,0.567-1.18,1.792v0.843c0,1.533,0.184,1.795,1.211,1.795v0.321h-3.51v-0.321c1.011,0,1.21-0.262,1.21-1.795v-0.766
		c0-1.532-0.199-1.778-1.21-1.778v-0.321l2.037-0.384c0.076,0.155,0.215,0.783,0.262,1.104c0.308-0.613,0.996-1.104,1.609-1.104
		c0.842,0,1.21,0.567,1.21,0.951C172.725,54.462,172.586,54.846,172.111,54.846z"/>
	<path d="M177.891,58.707c-0.598,0-0.966-0.337-1.042-0.89c-0.752,0.676-1.303,0.92-1.915,0.92
		c-0.752,0-1.38-0.475-1.38-1.287c0-1.303,1.519-1.87,3.265-2.176c0-1.149-0.154-1.609-1.026-1.609
		c-0.353,0-0.875,0.245-0.875,0.736c0,0.307-0.229,0.536-0.521,0.536c-0.305,0-0.535-0.229-0.535-0.536
		c0-0.736,0.966-1.228,1.946-1.228c1.486,0,2.099,0.629,2.099,2.085v2.315c0,0.382,0.123,0.596,0.353,0.596
		c0.154,0,0.322-0.122,0.43-0.229l0.216,0.291C178.61,58.539,178.227,58.707,177.891,58.707z M176.818,55.749
		c-1.456,0.338-2.115,0.844-2.115,1.518c0,0.49,0.337,0.781,0.72,0.781c0.323,0,0.69-0.106,1.396-0.735V55.749z"/>
	<path d="M184.418,51.581c0-1.531-0.185-1.792-1.21-1.792v-0.322l2.298-0.384v7.219c0,1.532,0.199,1.793,1.21,1.793
		v0.321l-2.037,0.383c-0.076-0.153-0.198-0.69-0.246-0.935c-0.428,0.536-1.041,0.935-1.884,0.935c-1.456,0-2.667-1.271-2.667-2.82
		c0-1.547,1.211-2.805,2.667-2.805c0.767,0,1.41,0.338,1.869,0.905V51.581z M184.418,54.999c-0.275-0.721-0.857-1.211-1.548-1.211
		c-1.195,0-1.747,0.965-1.747,2.19c0,1.227,0.552,2.208,1.747,2.208c0.69,0,1.272-0.491,1.548-1.211V54.999z"/>
	<path d="M187.59,58.539v-0.321c1.011,0,1.211-0.262,1.211-1.795v-0.766c0-1.532-0.2-1.778-1.211-1.778v-0.321
		l2.299-0.384v3.249c0,1.533,0.184,1.795,1.211,1.795v0.321H187.59z M189.337,51.673c-0.367,0-0.675-0.306-0.675-0.689
		c0-0.368,0.308-0.674,0.675-0.674c0.368,0,0.674,0.306,0.674,0.674C190.011,51.367,189.705,51.673,189.337,51.673z"/>
	<path d="M195.222,58.799c-1.701,0-3.096-1.271-3.096-2.82c0-1.547,1.395-2.805,3.096-2.805s3.095,1.258,3.095,2.805
		C198.316,57.527,196.923,58.799,195.222,58.799z M195.222,53.758c-1.256,0-1.854,0.995-1.854,2.221
		c0,1.227,0.598,2.223,1.854,2.223c1.272,0,1.854-0.996,1.854-2.223C197.075,54.753,196.494,53.758,195.222,53.758z"/>
</g>
</svg>
