<?xml version="1.0" encoding="utf-8"?>
<!-- Generator: Adobe Illustrator 16.0.0, SVG Export Plug-In . SVG Version: 6.00 Build 0)  -->
<!DOCTYPE svg PUBLIC "-//W3C//DTD SVG 1.1//EN" "http://www.w3.org/Graphics/SVG/1.1/DTD/svg11.dtd">
<svg version="1.1" id="Layer_1" xmlns="http://www.w3.org/2000/svg" xmlns:xlink="http://www.w3.org/1999/xlink" x="0px" y="0px"
	 width="200px" height="76px" viewBox="0 0 200 76" enable-background="new 0 0 200 76" xml:space="preserve">
<g  style="fill: #c5a47e">
	
		<path fill-rule="evenodd" clip-rule="evenodd" stroke-width="0.1147" stroke-linejoin="bevel" stroke-miterlimit="10" d="
		M97.764,74.564l-0.62-0.137L96.8,73.894l-0.052-0.464l0.034-1.118l-0.274-0.654l-0.327-0.344l-0.464-0.259l-1.153-0.085
		l-1.016-0.052l-2.167-0.309l-1.635-0.811l-1.1-0.894l-0.93-1.376l-0.154-0.706l-1.051-2.099l-0.928-1.635l-1.601-2.478L82.4,58.721
		l-1.514-1.531l-1.806-1.617l-1.737-1.358l-1.463-1.376l-0.963-1.171l-0.878-1.169l-0.688-1.239l-0.498-1.341l-0.361-1.584
		l-0.035-1.272l0.035-0.792l0.138-0.636l0.274-0.602l0.414-0.568l0.637-0.24l0.498,0.12l0.447,0.447l0.155,0.86l0.068,1.65
		l0.19,0.997l0.43,0.965l0.653,0.98l0.808,0.945l1.17,0.844l1.479,0.895l1.171,0.396l1.066-0.034l1.066-0.137l1.342-0.844
		l1.549-1.29l2.049-2.323l0.853-1.137l0.117-0.646l-0.908-2.236l-1.101-1.865l-1.074-1.596l-1.838-2.141l-1.21-1.066l-1.658-1.279
		l-1.259-0.723l-1.308-0.503l-0.956-0.192l-1.164,0.027l-0.564,0.352l-0.439,0.798l-0.015,1.514l-0.062,1.493l-0.117,0.791
		l-0.488,0.488l-0.475,0.256l-0.586-0.042l-0.433-0.145l-0.482-0.371c-0.009-0.02-0.006-0.036-0.006-0.062l-0.345-0.435
		l-0.301-0.698l-0.219-0.963l-0.055-1.569l0.22-1.473l0.606-2.106c0.014-0.01,0.024-0.017,0.041-0.026l0.674-1.417l0.743-1.295
		l1.582-2.023l0.565-1.072l0.88-3.221l1.474-3.936l2.229-4.309l1.914-2.793l2.709-3.069l2.492-2.119l2.532-1.693l3.427-1.583
		l2.67-0.77l3.592-0.717L103.453,1l5.834,0.275l2.781,0.233l3.783,0.922l3.152,1.253l1.514,1.101l1.005,1.073l0.839,1.198
		l0.496,1.403l0.151,1.789l-0.22,2.133l-0.565,1.982l-1.019,3.275l-0.935,2.725l-0.248,1.473l0.014,1.143l0.179,1.156l0.44,0.99
		c0.011,0.01,0.068,0.034,0.082,0.041l0.558,0.764l1.019,1.156l1.046,1.046l1.459,1.156l2.202,1.734l2.092,2.339l1.761,2.836
		l1.102,4.101L132,43.907l-0.246,2.173l-0.474,1.655l-0.747,1.547l-1.411,2.744l-2.29,2.98c-0.038,0.056-0.097,0.157-0.138,0.199
		l-1.756,1.713l-2.373,2.023l-2.767,2.188l-5.299,3.316l-6.021,3.393c-0.034,0.016-0.057,0.026-0.09,0.041l-0.234,0.675
		l-0.281,1.521l-0.159,1.549c-0.007,0.027-0.012,0.049-0.021,0.075l-0.412,1.308l-0.702,0.916c-0.019,0.018-0.044,0.021-0.076,0.033
		l-1.052,0.529l-1.693-0.013l-0.461-0.014c-0.063-0.031-0.142-0.077-0.207-0.117l-0.501-0.44l-0.394-0.784l-0.137-1.562
		l-0.076-0.558l-0.274-0.289l-1.096,0.017l-0.226,0.171l-0.134,0.334l-0.086,0.672l-0.119,0.962l-0.146,0.58l-0.354,0.619
		l-0.719,0.431L97.764,74.564L97.764,74.564z M99.998,62.039l0.697-0.146l0.617-0.512c0.186-0.356,0.309-0.746,0.096-1.155
		l-9.729-11.886l-0.712,0.942l-0.779,1.315l-1.264,2.813l-0.955,2.736l-0.306,1.281l0.116,1.841l0.215,0.465l0.354,0.348l0.657,0.25
		l0.646,0.017l0.998-0.334l0.839-0.169l3.161-0.047l1.393,0.09l1.75,0.748l1.244,1.161l0.369,0.155L99.998,62.039L99.998,62.039z
		 M124.636,42.946c-0.021-6.089-5.101-11.015-11.338-10.994c-6.239,0.021-11.285,4.979-11.265,11.068s5.103,11.015,11.34,10.995
		C119.611,53.994,124.657,49.035,124.636,42.946L124.636,42.946z"/>
</g>
</svg>
