<?xml version="1.0" encoding="utf-8"?>
<!-- Generator: Adobe Illustrator 16.0.0, SVG Export Plug-In . SVG Version: 6.00 Build 0)  -->
<!DOCTYPE svg PUBLIC "-//W3C//DTD SVG 1.1//EN" "http://www.w3.org/Graphics/SVG/1.1/DTD/svg11.dtd">
<svg version="1.1" id="Layer_1" xmlns="http://www.w3.org/2000/svg" xmlns:xlink="http://www.w3.org/1999/xlink" x="0px" y="0px"
	 width="200px" height="76px" viewBox="0 0 200 76" enable-background="new 0 0 200 76" xml:space="preserve">
<g style="fill: #333">
	<path d="M43.007,35.051c-0.244,0-0.436,0.188-0.468,0.457l-0.853,6.478l0.853,6.367
	c0.032,0.269,0.224,0.456,0.468,0.456c0.236,0,0.427-0.188,0.465-0.454l0,0v-0.001c0,0,0,0,0,0.001l1.01-6.369l-1.01-6.479
	C43.435,35.239,43.242,35.051,43.007,35.051z M47.803,31.512c-0.041-0.279-0.24-0.471-0.485-0.471c-0.247,0-0.452,0.198-0.486,0.471
	c0,0.002-1.146,10.474-1.146,10.474l1.146,10.242c0.033,0.275,0.237,0.473,0.486,0.473c0.244,0,0.444-0.193,0.484-0.47l1.305-10.245
	L47.803,31.512z M65.87,21.85c-0.471,0-0.86,0.385-0.882,0.875l-0.914,19.272l0.914,12.452c0.023,0.487,0.411,0.871,0.882,0.871
	c0.467,0,0.855-0.386,0.882-0.873v0.003l1.033-12.453l-1.033-19.272C66.725,22.235,66.337,21.85,65.87,21.85z M56.519,28.547
	c-0.361,0-0.656,0.289-0.686,0.674L54.806,41.99l1.028,12.353c0.028,0.383,0.325,0.67,0.686,0.67c0.357,0,0.652-0.287,0.684-0.67
	l1.168-12.353l-1.168-12.771C57.171,28.836,56.876,28.547,56.519,28.547z M75.371,55.317c0.583,0,1.059-0.471,1.082-1.072L77.349,42
	l-0.895-25.655c-0.023-0.602-0.498-1.073-1.082-1.073c-0.588,0-1.063,0.472-1.082,1.074c0,0.001-0.795,25.654-0.795,25.654
	l0.795,12.249C74.31,54.847,74.785,55.317,75.371,55.317z M94.826,55.376c0.802,0,1.465-0.662,1.479-1.476v0.011V53.9l0.625-11.892
	l-0.625-29.631c-0.014-0.812-0.677-1.474-1.479-1.474c-0.805,0-1.469,0.661-1.481,1.475l-0.558,29.618
	c0,0.021,0.558,11.911,0.558,11.911C93.357,54.714,94.022,55.376,94.826,55.376z M85.024,55.329c0.698,0,1.262-0.561,1.281-1.276
	v0.01l0.76-12.06l-0.761-25.842c-0.02-0.714-0.583-1.273-1.282-1.273c-0.703,0-1.266,0.559-1.282,1.273l-0.675,25.844l0.677,12.056
	C83.758,54.769,84.321,55.329,85.024,55.329z M61.176,55.217c0.415,0,0.751-0.334,0.783-0.771L63.06,41.99l-1.101-11.85
	c-0.03-0.437-0.366-0.767-0.783-0.767c-0.421,0-0.758,0.333-0.784,0.773l-0.97,11.844l0.97,12.455
	C60.419,54.883,60.755,55.217,61.176,55.217z M51.899,54.533c0.304,0,0.55-0.239,0.584-0.571l1.237-11.974L52.484,29.56
	c-0.035-0.333-0.282-0.572-0.585-0.572c-0.307,0-0.552,0.241-0.584,0.572c0,0.001-1.089,12.429-1.089,12.429l1.089,11.971
	C51.346,54.293,51.59,54.533,51.899,54.533z M89.906,15.731c-0.758,0-1.367,0.603-1.382,1.376l-0.618,24.897l0.618,11.982
	c0.015,0.761,0.622,1.365,1.382,1.365c0.758,0,1.363-0.602,1.38-1.374v0.01l0.692-11.98l-0.692-24.903
	C91.269,16.334,90.664,15.731,89.906,15.731z M70.603,55.343c0.524,0,0.957-0.428,0.982-0.974l0.962-12.372L71.585,18.32
	c-0.027-0.547-0.458-0.973-0.982-0.973c-0.529,0-0.96,0.428-0.984,0.973c0,0.001-0.853,23.677-0.853,23.677l0.854,12.376
	C69.643,54.915,70.074,55.343,70.603,55.343z M81.36,54.176v-0.008l0.828-12.165L81.36,15.481c-0.02-0.658-0.539-1.175-1.181-1.175
	c-0.645,0-1.164,0.515-1.181,1.175L78.263,42L79,54.173c0.017,0.652,0.537,1.168,1.18,1.168c0.643,0,1.16-0.516,1.181-1.171V54.176z
	 M143.971,26.715c-1.966,0-3.842,0.398-5.549,1.114C137.28,14.9,126.438,4.758,113.212,4.758c-3.235,0-6.39,0.637-9.175,1.715
	c-1.083,0.419-1.37,0.85-1.382,1.687V53.69c0.012,0.877,0.693,1.608,1.55,1.695c0.037,0.003,39.508,0.022,39.764,0.022
	c7.922,0,14.345-6.421,14.345-14.347C158.313,33.139,151.893,26.715,143.971,26.715z M99.723,8.119
	c-0.861,0-1.569,0.708-1.582,1.577l-0.646,32.316l0.648,11.729c0.011,0.855,0.719,1.563,1.58,1.563c0.86,0,1.566-0.707,1.58-1.576
	v0.014l0.703-11.729l-0.703-32.319C101.289,8.827,100.583,8.119,99.723,8.119z M53.27,64.528c-1.697-0.398-2.156-0.612-2.156-1.284
	c0-0.474,0.382-0.965,1.529-0.965c0.98,0,1.746,0.398,2.433,1.103l1.545-1.499c-1.011-1.054-2.233-1.682-3.899-1.682
	c-2.112,0-3.824,1.193-3.824,3.137c0,2.109,1.377,2.735,3.349,3.193c2.017,0.459,2.385,0.765,2.385,1.455
	c0,0.81-0.598,1.162-1.865,1.162c-1.025,0-1.987-0.351-2.738-1.225L48.484,69.3c0.81,1.193,2.371,1.941,4.158,1.941
	c2.923,0,4.208-1.375,4.208-3.408C56.85,65.508,54.969,64.928,53.27,64.528z M63.122,60.201c-2.92,0-4.647,2.263-4.647,5.52
	c0,3.258,1.727,5.52,4.647,5.52s4.65-2.262,4.65-5.52C67.771,62.464,66.042,60.201,63.122,60.201z M63.122,69.116
	c-1.727,0-2.447-1.483-2.447-3.393c0-1.913,0.72-3.396,2.447-3.396c1.729,0,2.447,1.482,2.447,3.396
	C65.569,67.633,64.851,69.116,63.122,69.116z M76.411,66.38c0,1.712-0.842,2.769-2.202,2.769c-1.361,0-2.187-1.086-2.187-2.798
	v-5.982H69.88v6.012c0,3.118,1.746,4.861,4.329,4.861c2.722,0,4.343-1.789,4.343-4.891v-5.982h-2.141V66.38z M87.788,64.896
	c0,0.598,0.029,1.942,0.029,2.34c-0.137-0.276-0.489-0.811-0.748-1.208l-3.794-5.66h-2.049v10.706h2.111v-4.71
	c0-0.599-0.031-1.943-0.031-2.34c0.137,0.274,0.492,0.811,0.75,1.209l3.931,5.841h1.911V60.367h-2.11V64.896L87.788,64.896z
	 M96,60.368h-3.349v10.707h3.194c2.753,0,5.476-1.592,5.476-5.354C101.321,61.806,99.058,60.368,96,60.368z M95.845,68.995h-1.053
	v-6.546h1.131c2.264,0,3.197,1.084,3.197,3.271C99.121,67.68,98.094,68.995,95.845,68.995z M107.943,62.325
	c0.963,0,1.575,0.431,1.957,1.164l1.987-0.917c-0.673-1.391-1.896-2.371-3.915-2.371c-2.796,0-4.756,2.263-4.756,5.52
	c0,3.38,1.881,5.52,4.68,5.52c1.942,0,3.226-0.901,3.961-2.415l-1.804-1.071c-0.566,0.948-1.133,1.362-2.096,1.362
	c-1.605,0-2.539-1.47-2.539-3.396C105.417,63.734,106.339,62.325,107.943,62.325z M115.884,60.368h-2.141v10.707h6.435v-2.113
	h-4.294V60.368z M125.817,60.201c-2.922,0-4.648,2.263-4.648,5.52c0,3.258,1.727,5.52,4.648,5.52c2.92,0,4.648-2.262,4.648-5.52
	C130.466,62.464,128.737,60.201,125.817,60.201z M125.817,69.116c-1.73,0-2.447-1.483-2.447-3.393c0-1.913,0.717-3.396,2.447-3.396
	c1.727,0,2.444,1.482,2.444,3.396C128.262,67.633,127.544,69.116,125.817,69.116z M139.105,66.38c0,1.712-0.839,2.769-2.2,2.769
	c-1.363,0-2.188-1.086-2.188-2.798v-5.982h-2.142v6.012c0,3.118,1.743,4.861,4.329,4.861c2.722,0,4.343-1.789,4.343-4.891v-5.982
	h-2.143V66.38z M147.271,60.368h-3.348v10.707h3.194c2.755,0,5.476-1.592,5.476-5.354C152.594,61.806,150.331,60.368,147.271,60.368
	z M147.118,68.995h-1.055v-6.546h1.133c2.262,0,3.195,1.084,3.195,3.271C150.392,67.68,149.365,68.995,147.118,68.995z"/>
</g>
</svg>
