<?xml version="1.0" encoding="utf-8"?>
<!-- Generator: Adobe Illustrator 16.0.0, SVG Export Plug-In . SVG Version: 6.00 Build 0)  -->
<!DOCTYPE svg PUBLIC "-//W3C//DTD SVG 1.1//EN" "http://www.w3.org/Graphics/SVG/1.1/DTD/svg11.dtd">
<svg version="1.1" id="Layer_1" xmlns="http://www.w3.org/2000/svg" xmlns:xlink="http://www.w3.org/1999/xlink" x="0px" y="0px"
	 width="200px" height="76px" viewBox="0 0 200 76" enable-background="new 0 0 200 76" xml:space="preserve">
<g style="fill: #333">
	<path d="M101.354,1.038c-15.736,0-28.495,12.757-28.495,28.495c0,15.738,12.758,28.495,28.495,28.495
		c15.737,0,28.495-12.757,28.495-28.495C129.85,13.794,117.092,1.038,101.354,1.038z M114.374,42.062
		c-0.448,0.754-1.4,1.058-2.214,0.698c-0.163-0.072-0.315-0.169-0.47-0.261c-3.015-1.787-6.27-2.895-9.729-3.425
		c-2.123-0.324-4.257-0.438-6.4-0.353c-2.773,0.108-5.51,0.493-8.219,1.093c-0.274,0.061-0.556,0.115-0.833,0.119
		c-0.839,0.008-1.547-0.586-1.694-1.393c-0.156-0.854,0.268-1.655,1.05-1.969c0.166-0.067,0.342-0.109,0.517-0.148
		c2.216-0.498,4.452-0.874,6.714-1.065c1.264-0.106,2.532-0.148,3.798-0.219c3.747,0.039,7.412,0.546,10.969,1.745
		c1.962,0.662,3.835,1.518,5.614,2.578c0.155,0.092,0.311,0.183,0.453,0.291C114.648,40.297,114.836,41.284,114.374,42.062z
		 M117.858,34.31c-0.629,1.034-1.938,1.355-3.025,0.742c-0.613-0.346-1.221-0.707-1.848-1.026
		c-2.876-1.466-5.926-2.417-9.091-3.015c-2.437-0.462-4.896-0.687-7.509-0.698c-3.254,0.014-6.589,0.417-9.845,1.384
		c-0.53,0.158-1.063,0.168-1.583-0.042c-0.846-0.343-1.396-1.191-1.366-2.088c0.032-0.936,0.602-1.751,1.504-2.026
		c0.918-0.28,1.85-0.523,2.787-0.731c2.308-0.512,4.646-0.784,7.009-0.873c5.083-0.192,10.048,0.464,14.894,2.017
		c2.448,0.785,4.792,1.813,7.005,3.13c0.11,0.065,0.22,0.132,0.328,0.199C118.272,31.985,118.41,33.405,117.858,34.31z
		 M118.196,26.249c-1.229-0.695-2.486-1.326-3.797-1.851c-2.604-1.044-5.301-1.746-8.06-2.233
		c-1.918-0.338-3.852-0.562-5.797-0.679c-2.021-0.121-4.044-0.135-6.068-0.031c-2.32,0.12-4.622,0.375-6.893,0.866
		c-0.839,0.181-1.667,0.409-2.495,0.631c-0.508,0.136-1.009,0.152-1.515,0.005c-1.108-0.324-1.872-1.317-1.905-2.48
		c-0.032-1.129,0.664-2.179,1.759-2.54c0.801-0.264,1.625-0.472,2.447-0.662c2.037-0.471,4.103-0.762,6.185-0.953
		c2.211-0.201,4.426-0.267,6.642-0.203c5.46,0.157,10.814,0.955,15.996,2.744c2.113,0.73,4.146,1.635,6.079,2.763
		c0.688,0.402,1.152,0.969,1.327,1.752c0.043,0.186,0.052,0.379,0.076,0.569C122.171,26.011,120.008,27.274,118.196,26.249z"/>
	<path d="M77.432,71.147l1.311-1.597c0.906,0.762,1.856,1.244,3.008,1.244c0.907,0,1.454-0.366,1.454-0.966V69.8
		c0-0.571-0.345-0.863-2.03-1.304c-2.029-0.526-3.339-1.098-3.339-3.132v-0.03c0-1.859,1.468-3.089,3.527-3.089
		c1.468,0,2.72,0.469,3.743,1.304l-1.152,1.697c-0.893-0.629-1.77-1.01-2.62-1.01c-0.849,0-1.295,0.396-1.295,0.893v0.03
		c0,0.673,0.432,0.894,2.173,1.347c2.044,0.542,3.195,1.288,3.195,3.075v0.028c0,2.036-1.525,3.178-3.699,3.178
		C80.181,72.787,78.642,72.245,77.432,71.147z"/>
	<path d="M103.981,70.416v-3.794h-0.962v-1.787h0.962v-2.042h2.004v2.042h2.013v1.787h-2.013v3.505
		c0,0.645,0.402,0.794,0.893,0.794c0.404,0,0.774-0.135,1.092-0.311v1.708c-0.462,0.277-0.996,0.453-1.733,0.453
		C104.893,72.771,103.981,72.23,103.981,70.416z"/>
	<rect x="108.776" y="64.896" fill="#333333" width="1.979" height="7.747"/>
	<path d="M114.488,64.881v-0.383c0-0.583,0.447-0.846,0.959-0.846c0.38,0,0.688,0.073,1.009,0.189v-1.759
		c-0.409-0.131-0.878-0.218-1.579-0.218c-0.79,0-1.312,0.203-1.721,0.611c-0.41,0.408-0.663,1.034-0.663,1.895v0.495h-0.968v1.742
		h0.923v5.995h2.059V66.61h1.605l2.413,5.911c-0.201,0.475-0.54,0.711-0.91,0.711c-0.284,0-0.741-0.163-1.025-0.336l-0.725,1.534
		c0.556,0.333,1.329,0.532,2.112,0.532c1.384,0,2.046-1.187,2.282-1.795l3.188-8.271l-2.058-0.002l-1.861,5.274l-2.042-5.291
		h-1.047L114.488,64.881z"/>
	<circle cx="109.766" cy="62.696" r="1.24"/>
	<path d="M123.639,66.079v-0.007c0-0.667,0.542-1.227,1.231-1.227c0.688,0,1.223,0.552,1.223,1.221v0.006
		c0,0.668-0.543,1.228-1.229,1.228C124.175,67.3,123.639,66.746,123.639,66.079z M125.95,66.072v-0.006
		c0-0.601-0.464-1.085-1.08-1.085c-0.621,0-1.089,0.491-1.089,1.091v0.007c0,0.6,0.465,1.085,1.082,1.085
		C125.483,67.164,125.95,66.672,125.95,66.072z M124.361,65.384h0.579c0.177,0,0.313,0.052,0.403,0.143
		c0.071,0.071,0.108,0.17,0.108,0.285v0.007c0,0.21-0.115,0.342-0.281,0.403l0.318,0.468h-0.335l-0.278-0.42h-0.228v0.42h-0.287
		V65.384z M124.938,66.021c0.146,0,0.223-0.078,0.223-0.186v-0.008c0-0.126-0.088-0.189-0.23-0.189h-0.281v0.383H124.938z"/>
	<path d="M98.816,64.71c-2.359,0-4.147,1.816-4.147,4.052v0.03c0,2.236,1.774,4.023,4.119,4.023
		c2.357,0,4.108-1.815,4.108-4.054v-0.028C102.896,66.497,101.16,64.71,98.816,64.71z M98.782,71.094
		c-1.193,0-2.159-1.036-2.159-2.314s0.966-2.314,2.159-2.314c1.193,0,2.16,1.036,2.16,2.314S99.976,71.094,98.782,71.094z"/>
	<path d="M90.624,64.712c-1.271,0-2.047,0.457-2.575,1.181v-1.036h-1.976v10.06h2.014V71.63
		c0.514,0.622,1.227,1.157,2.382,1.157c1.811,0,3.634-1.417,3.634-4.004v-0.028C94.104,66.167,92.356,64.712,90.624,64.712z
		 M90.066,71.041c-1.126,0-2.039-1.025-2.039-2.291c0-1.265,0.913-2.29,2.039-2.29s2.04,1.025,2.04,2.29
		C92.106,70.016,91.193,71.041,90.066,71.041z"/>
</g>
</svg>
