<?xml version="1.0" encoding="utf-8"?>
<!-- Generator: Adobe Illustrator 16.0.0, SVG Export Plug-In . SVG Version: 6.00 Build 0)  -->
<!DOCTYPE svg PUBLIC "-//W3C//DTD SVG 1.1//EN" "http://www.w3.org/Graphics/SVG/1.1/DTD/svg11.dtd">
<svg version="1.1" id="Layer_1" xmlns="http://www.w3.org/2000/svg" xmlns:xlink="http://www.w3.org/1999/xlink" x="0px" y="0px"
	 width="200px" height="76px" viewBox="0 0 200 76" enable-background="new 0 0 200 76" xml:space="preserve">
<g style="fill: #c5a47e">
	<path fill-rule="evenodd" clip-rule="evenodd" d="M108.318,33.342c-0.001-1.085-0.88-1.964-1.966-1.961h-0.527
		c-1.092-0.052-1.972-0.877-1.972-1.965l0.005,0.001l-0.027-15.347c-0.004-1.087-0.886-1.966-1.972-1.964l-3.623,0.005
		c-0.569,0-1.261,0.336-1.619,0.721c-1.702,1.502-2.941,2.277-5.209,2.589c-1.088,0.001-2.102,0.882-2.1,1.972l0.002,2.246
		c0.003,1.966,0.886,1.964,1.971,1.963l1.188-0.002c0.544-0.001,0.885,0.438,0.887,0.982l0.01,6.967
		c0.001,1.087-0.878,1.852-1.964,1.853l-1.1,0.001c-1.084,0.002-1.964,0.882-1.963,1.968l0.005,3.684
		c0.002,1.087,0.884,1.965,1.969,1.962l16.043-0.023c1.091-0.002,1.968-0.882,1.966-1.968L108.318,33.342L108.318,33.342z
		 M98.227,23.852l-1.085,2.99c-0.137,0.386-0.428,0.766-0.939,0.767c-0.486,0-0.823-0.335-0.941-0.764l-0.757-2.682
		c-0.063-0.237-0.417-0.105-0.418-0.522c0-0.181,0.143-0.3,0.33-0.375c0.194-0.069,0.355-0.1,0.491-0.1
		c0.393,0,0.754,0.129,0.843,0.534l0.588,2.558h0.038l0.804-2.585c0.1-0.324,0.225-0.467,0.622-0.467
		C98.045,23.205,98.425,23.316,98.227,23.852L98.227,23.852z M102.669,27.475c-0.174,0.063-0.349,0.1-0.522,0.1
		c-0.535,0.001-0.805-0.216-0.805-0.777l0.004-0.977l-0.971,0.001l-0.004,1.208c0,0.379-0.286,0.536-0.653,0.536
		c-0.368,0.001-0.647-0.148-0.643-0.54l0.021-2.877c0-0.23-0.386-0.149-0.386-0.473c0-0.224,0.142-0.342,0.348-0.412
		c0.174-0.062,0.349-0.099,0.522-0.1c0.53,0,0.811,0.217,0.812,0.777l-0.006,0.908l0.971-0.001l0.004-1.138
		c0-0.38,0.273-0.536,0.641-0.537c0.367-0.001,0.654,0.148,0.649,0.534l-0.026,2.883c0,0.231,0.392,0.148,0.392,0.473
		C103.017,27.288,102.868,27.407,102.669,27.475L102.669,27.475z"/>
	<path fill-rule="evenodd" clip-rule="evenodd" d="M54.459,62.31c-1.262,0.109-2.885-0.321-3.248-1.727
		c-0.145-0.504-0.398-0.829-0.759-0.829c-0.432,0.002-0.937,0.184-1.296,0.579c-1.007,1.156-1.22,3.356-1.219,4.618
		c0.001,1.082,0.22,1.946,0.617,2.559c0.687,0.973,1.697,1.188,2.562,1.187c1.009-0.003,1.946-0.329,3.099-1.052
		c1.188-0.759,2.379-0.363,3.101,0.646c0.651,0.898,0.472,1.945-0.32,2.812c-0.972,1.083-3.421,2.745-7.53,2.752
		c-3.75,0.006-6.059-0.819-7.828-2.8c-1.445-1.692-2.134-3.603-2.137-6.27c-0.008-5.084,4.382-10.03,10.187-10.04
		c2.235-0.003,4.506,0.138,6.419,1.396c1.552,1.008,1.698,2.196,1.52,3.352C57.342,61.511,56.802,62.125,54.459,62.31L54.459,62.31z
		"/>
	<path fill-rule="evenodd" clip-rule="evenodd" d="M68.103,72.744c-1.189,0.471-2.198,0.688-3.857,0.69
		c-2.127,0.003-4.22-1.435-4.224-3.815l-0.029-18.46c-0.003-2.414,1.798-3.284,4.068-3.287c2.236-0.004,4.076,0.86,4.08,3.275
		l0.026,16.26c0.002,1.551,2.236,0.503,2.239,2.809C70.408,71.442,69.58,72.165,68.103,72.744L68.103,72.744z"/>
	<path fill-rule="evenodd" clip-rule="evenodd" d="M81.973,66.415c0.001,0.9-0.646,1.73-2.052,1.732
		c-0.541,0.001-1.154-0.357-1.156-1.044v-0.252c0-0.361,0.323-0.794,0.792-0.938l1.693-0.579c0.433-0.145,0.722,0.071,0.722,0.323
		L81.973,66.415L81.973,66.415z M91.785,69.823c-0.001-0.973-0.543-1.55-1.083-1.692c-0.938-0.286-1.119-0.539-1.121-1.368
		l-0.007-4.652c-0.007-4.758-2.571-7.313-8.52-7.305c-1.298,0.002-3.424,0.366-5.01,0.909c-3.063,1.123-3.206,2.205-3.204,3.79
		c0.004,2.057,1.05,2.774,2.961,2.772c1.514-0.002,2.812-0.185,3.35-1.771c0.287-0.794,0.467-1.011,1.368-1.012
		c0.829-0.001,1.335,0.539,1.336,1.367l0.001,0.901l-5.442,1.415c-2.812,0.762-4.792,1.81-4.788,4.875
		c0.005,3.137,1.667,5.405,5.777,5.399c1.298-0.003,3.785-0.691,5.08-2.785l0.073,0.181c0.435,1.441,1.662,2.485,3.5,2.482
		c1.298-0.003,2.632-0.364,3.64-0.907C91.139,71.7,91.787,70.978,91.785,69.823L91.785,69.823z"/>
	<path fill-rule="evenodd" clip-rule="evenodd" d="M101.131,73.812c-4.29,0.008-6.563-1.432-7.574-2.656
		c-0.795-0.971-0.87-2.341-0.113-3.172c1.008-1.047,2.449-1.158,3.532-0.222c0.795,0.684,1.661,1.043,2.67,1.042
		c0.757-0.002,1.298-0.22,1.513-0.544c0.18-0.289,0.035-0.686-0.506-1.116c-0.613-0.469-1.804-0.791-3.464-1.689
		c-1.659-0.9-3.717-2.338-3.721-5.079c-0.005-3.461,3.813-5.667,8.175-5.673c4.074-0.005,5.95,1.326,6.926,2.549
		c0.796,0.974,0.797,1.91,0.221,2.849c-0.611,0.938-2.125,1.301-3.387,0.474c-0.759-0.503-1.769-0.789-2.525-0.789
		c-0.578-0.035-1.01,0.146-1.153,0.47c-0.179,0.542,0.181,0.938,1.372,1.514c1.118,0.574,2.309,0.97,3.429,1.58
		c1.551,0.899,2.887,2.268,2.891,4.646C109.418,70.338,107.08,73.802,101.131,73.812L101.131,73.812z"/>
	<path fill-rule="evenodd" clip-rule="evenodd" d="M119.123,73.784c-4.291,0.007-6.563-1.433-7.576-2.655
		c-0.795-0.975-0.869-2.344-0.113-3.174c1.008-1.046,2.45-1.158,3.533-0.222c0.794,0.685,1.659,1.043,2.671,1.041
		c0.755-0.001,1.297-0.218,1.513-0.543c0.18-0.289,0.035-0.686-0.507-1.117c-0.613-0.468-1.805-0.791-3.464-1.688
		c-1.66-0.898-3.718-2.337-3.724-5.078c-0.005-3.461,3.814-5.666,8.177-5.672c4.075-0.008,5.952,1.324,6.927,2.548
		c0.794,0.972,0.796,1.91,0.221,2.849c-0.611,0.938-2.124,1.302-3.389,0.473c-0.757-0.502-1.768-0.791-2.525-0.789
		c-0.576-0.035-1.009,0.146-1.153,0.471c-0.179,0.542,0.184,0.937,1.373,1.513c1.119,0.575,2.311,0.969,3.427,1.58
		c1.554,0.9,2.89,2.268,2.893,4.647C127.41,70.31,125.07,73.774,119.123,73.784L119.123,73.784z"/>
	<path fill-rule="evenodd" clip-rule="evenodd" d="M133.583,53.249c-1.802,0.003-4.29-0.317-4.294-2.661
		c-0.003-2.343,3.096-3.069,4.935-3.073c1.876-0.002,3.896,0.571,3.898,2.807C138.126,52.737,135.459,53.247,133.583,53.249
		L133.583,53.249z M137.977,72.784c-1.044,0.325-2.126,0.508-3.244,0.509c-3.352,0.005-5.266-1.362-5.271-4.858l-0.017-10.203
		c-0.002-2.453,1.906-3.284,4.069-3.288c2.127-0.003,4.076,0.822,4.08,3.274l-0.022,9.302c0.003,1.442,2.381,0.934,2.386,2.845
		C139.958,71.698,139.202,72.385,137.977,72.784L137.977,72.784z"/>
	<path fill-rule="evenodd" clip-rule="evenodd" d="M155.122,62.156c-1.261,0.109-2.884-0.32-3.246-1.726
		c-0.146-0.505-0.398-0.829-0.759-0.828c-0.434,0-0.937,0.182-1.298,0.579c-1.008,1.155-1.22,3.354-1.218,4.617
		c0.001,1.081,0.218,1.945,0.617,2.558c0.687,0.974,1.695,1.188,2.562,1.186c1.009-0.001,1.946-0.326,3.099-1.049
		c1.188-0.761,2.38-0.365,3.102,0.644c0.65,0.9,0.472,1.945-0.32,2.813c-0.972,1.084-3.42,2.746-7.531,2.751
		c-3.749,0.007-6.059-0.818-7.828-2.799c-1.445-1.693-2.133-3.602-2.137-6.27c-0.009-5.085,4.385-10.031,10.188-10.039
		c2.235-0.005,4.508,0.136,6.421,1.396c1.552,1.006,1.697,2.196,1.519,3.351C158.005,61.357,157.467,61.972,155.122,62.156
		L155.122,62.156z"/>
	<path fill-rule="evenodd" clip-rule="evenodd" d="M160.455,53.343c-0.248,0-0.367-0.102-0.368-0.354l0.013-0.767
		h-0.023l-0.242,0.519c-0.041,0.093-0.105,0.147-0.207,0.147c-0.096,0-0.16-0.055-0.202-0.146l-0.229-0.527l-0.023,0.004
		l-0.008,0.887c0,0.16-0.068,0.239-0.238,0.239c-0.161,0-0.229-0.077-0.229-0.234l0.016-1.313c0-0.031-0.005-0.056-0.032-0.069
		c-0.064-0.032-0.12-0.071-0.12-0.142c0-0.212,0.29-0.24,0.442-0.24c0.178,0,0.303,0.075,0.39,0.239l0.322,0.618h0.018l0.316-0.657
		c0.074-0.151,0.165-0.202,0.326-0.202c0.175,0,0.299,0.069,0.295,0.253l-0.007,1.291c-0.005,0.102,0.18,0.068,0.18,0.215
		C160.842,53.287,160.598,53.343,160.455,53.343L160.455,53.343z M158.184,51.803c-0.051,0-0.101,0-0.151-0.009
		c-0.019,0-0.078-0.006-0.103-0.006c-0.058,0-0.138-0.014-0.137,0.048l0.003,1.263c0,0.18-0.143,0.247-0.313,0.247
		c-0.17,0.002-0.313-0.067-0.313-0.245l-0.002-1.279c0-0.042-0.092-0.031-0.138-0.031c-0.023,0-0.084,0.005-0.106,0.005
		c-0.05,0.009-0.101,0.009-0.151,0.009c-0.119,0-0.193-0.104-0.193-0.219c0-0.135,0.091-0.217,0.22-0.217l1.384-0.003
		c0.124,0,0.216,0.064,0.216,0.198C158.399,51.683,158.312,51.803,158.184,51.803L158.184,51.803z"/>
	<path fill-rule="evenodd" clip-rule="evenodd" d="M98.549,2.147c-13.609,0-24.642,11.033-24.642,24.641
		c0,13.609,11.033,24.642,24.642,24.642c13.608,0,24.642-11.032,24.642-24.642C123.19,13.18,112.157,2.147,98.549,2.147
		L98.549,2.147z M98.549,44.415c-9.734,0-17.626-7.891-17.626-17.626c0-9.735,7.892-17.627,17.626-17.627
		c9.735,0,17.627,7.892,17.627,17.627C116.176,36.524,108.284,44.415,98.549,44.415L98.549,44.415z"/>
</g>
</svg>
