<?xml version="1.0" encoding="utf-8"?>
<!-- Generator: Adobe Illustrator 16.0.0, SVG Export Plug-In . SVG Version: 6.00 Build 0)  -->
<!DOCTYPE svg PUBLIC "-//W3C//DTD SVG 1.1//EN" "http://www.w3.org/Graphics/SVG/1.1/DTD/svg11.dtd">
<svg version="1.1" id="Layer_1" xmlns="http://www.w3.org/2000/svg" xmlns:xlink="http://www.w3.org/1999/xlink" x="0px" y="0px"
	 width="200px" height="76px" viewBox="0 0 200 76" enable-background="new 0 0 200 76" xml:space="preserve">
<g style="fill: #333">
	<path fill-rule="evenodd" clip-rule="evenodd" d="M137.721,17.031c4.151,12.917,8.072,26.063,11.993,39.21h16.606
		L146.485,3.193h-17.76l-13.607,36.441l-7.15-10.84l16.376-25.602h-17.759l-9.227,16.375L88.133,3.193h-17.99l16.606,25.371
		l-7.38,11.071L65.761,3.193h-17.99L27.936,56.241h16.837c3.69-13.146,7.842-26.293,11.763-39.21
		c4.151,12.917,8.072,26.063,11.993,39.21l0,0l0,0h17.068h1.153l10.379-17.067l10.379,17.067h1.384h17.067l0,0l0,0
		C129.879,43.095,133.8,29.948,137.721,17.031L137.721,17.031z"/>
	<path fill-rule="evenodd" clip-rule="evenodd" d="M37.161,72.386c-0.691,0.462-1.384,0.923-2.076,1.153
		C34.624,73.771,33.932,74,33.24,74c-1.153,0-2.076-0.461-2.768-0.922c-0.461-0.462-0.923-1.384-0.923-2.076s0.23-1.153,0.461-1.615
		c0.23-0.229,0.461-0.691,0.922-0.922c0.231-0.23,0.692-0.461,1.153-0.691c0.461,0,0.922,0,1.614-0.231
		c1.384,0,2.537-0.23,3.229-0.461c0-0.23,0-0.462,0-0.462c0-0.922-0.231-1.384-0.461-1.613c-0.461-0.462-1.153-0.692-2.076-0.692
		c-0.923,0-1.384,0.23-1.845,0.461c-0.461,0.461-0.692,0.923-0.923,1.614l-1.614-0.23c0-0.691,0.23-1.384,0.692-1.845
		c0.23-0.461,0.922-0.692,1.614-0.923c0.692-0.461,1.384-0.461,2.307-0.461c0.922,0,1.614,0,2.307,0.23
		c0.461,0.23,0.922,0.461,1.153,0.923c0.231,0.23,0.461,0.691,0.461,1.152c0.23,0.231,0.23,0.923,0.23,1.615v2.307
		c0,1.845,0,2.768,0,3.229c0,0.462,0.231,0.923,0.461,1.385h-1.845C37.161,73.309,37.161,72.848,37.161,72.386L37.161,72.386z
		 M36.931,68.465c-0.692,0.23-1.615,0.462-2.999,0.692c-0.692,0-1.153,0.229-1.384,0.229c-0.461,0.231-0.692,0.462-0.692,0.692
		c-0.231,0.23-0.461,0.461-0.461,0.692c0,0.461,0.23,0.923,0.692,1.384c0.23,0.23,0.922,0.461,1.614,0.461
		c0.692,0,1.153-0.23,1.845-0.461c0.461-0.461,0.923-0.692,1.153-1.384c0-0.231,0.231-0.923,0.231-1.614V68.465L36.931,68.465z
		 M40.159,73.771V63.16h1.615v1.614c0.461-0.691,0.692-1.153,1.153-1.614c0.23-0.23,0.691-0.23,1.153-0.23s1.154,0.23,1.845,0.461
		l-0.691,1.845c-0.461-0.461-0.923-0.461-1.384-0.461c-0.231,0-0.692,0-0.922,0.231c-0.231,0.229-0.461,0.691-0.692,1.152
		c-0.231,0.461-0.231,1.153-0.231,2.076v5.536H40.159L40.159,73.771z M52.614,69.849l1.614,0.23
		c-0.231,1.153-0.692,2.076-1.384,2.769C51.922,73.539,51,74,49.846,74c-1.384,0-2.537-0.461-3.459-1.384
		c-0.923-1.153-1.153-2.307-1.153-4.151c0-1.153,0-2.076,0.461-2.998c0.461-0.923,0.922-1.384,1.614-1.846
		c0.923-0.461,1.615-0.691,2.537-0.691c1.153,0,2.076,0.23,2.768,0.923c0.922,0.461,1.383,1.383,1.383,2.306l-1.614,0.461
		c-0.23-0.922-0.461-1.384-0.923-1.613c-0.461-0.462-0.922-0.692-1.383-0.692c-0.922,0-1.615,0.461-2.307,1.153
		c-0.461,0.461-0.922,1.614-0.922,2.998s0.461,2.307,0.922,2.998c0.461,0.692,1.153,0.923,2.076,0.923
		c0.692,0,1.384-0.23,1.845-0.691C52.153,71.463,52.383,70.771,52.614,69.849L52.614,69.849z M54.459,73.771V59.239h1.845v5.074
		c0.922-0.923,1.845-1.384,3.229-1.384c0.691,0,1.383,0.23,1.845,0.461c0.692,0.23,1.153,0.692,1.384,1.153
		c0.231,0.691,0.231,1.384,0.231,2.537v6.689h-1.615v-6.689c0-0.923-0.23-1.614-0.692-2.075c-0.461-0.462-0.923-0.462-1.614-0.462
		c-0.461,0-0.923,0-1.384,0.23c-0.461,0.461-0.922,0.692-1.153,1.153c-0.231,0.461-0.231,1.153-0.231,2.076v5.767H54.459
		L54.459,73.771z M64.607,61.315v-2.076h1.614v2.076H64.607L64.607,61.315z M64.607,73.771V63.16h1.614v10.61H64.607L64.607,73.771z
		 M71.527,72.155l0.461,1.615c-0.692,0-1.153,0-1.384,0c-0.691,0-1.153,0-1.614-0.231c-0.231-0.23-0.461-0.461-0.692-0.923
		c-0.231-0.23-0.231-0.922-0.231-2.076v-5.996h-1.384V63.16h1.384v-2.537l1.846-1.153v3.69h1.614v1.384h-1.614v6.228
		c0,0.461,0,0.691,0,0.923c0,0.23,0.23,0.23,0.23,0.23c0.231,0.23,0.461,0.23,0.692,0.23C71.065,72.155,71.296,72.155,71.527,72.155
		L71.527,72.155z M79.369,70.31l1.845,0.23c-0.461,1.154-0.923,1.846-1.615,2.538C78.677,73.539,77.754,74,76.601,74
		c-1.614,0-2.768-0.461-3.69-1.614c-0.922-0.923-1.384-2.076-1.384-3.921c0-1.846,0.461-2.998,1.384-4.151
		c0.922-0.923,2.076-1.384,3.459-1.384c1.384,0,2.537,0.461,3.459,1.384c0.923,0.922,1.384,2.306,1.384,4.151c0,0,0,0.23,0,0.462
		h-7.842c0,1.152,0.461,2.075,0.922,2.536c0.692,0.692,1.384,0.923,2.306,0.923c0.461,0,1.154,0,1.615-0.461
		C78.677,71.694,78.907,71.002,79.369,70.31L79.369,70.31z M73.372,67.312h5.997c-0.231-0.692-0.461-1.384-0.692-1.845
		c-0.692-0.692-1.384-1.153-2.307-1.153c-0.692,0-1.384,0.23-2.076,0.922C73.833,65.697,73.603,66.389,73.372,67.312L73.372,67.312z
		 M89.056,69.849l1.614,0.23c-0.231,1.153-0.692,2.076-1.384,2.769C88.363,73.539,87.441,74,86.288,74
		c-1.384,0-2.537-0.461-3.459-1.384c-0.922-1.153-1.384-2.307-1.384-4.151c0-1.153,0.231-2.076,0.692-2.998
		c0.461-0.923,0.922-1.384,1.615-1.846c0.922-0.461,1.614-0.691,2.537-0.691c1.153,0,2.076,0.23,2.768,0.923
		c0.691,0.461,1.153,1.383,1.383,2.306l-1.614,0.461c-0.23-0.922-0.461-1.384-0.922-1.613c-0.461-0.462-0.923-0.692-1.384-0.692
		c-0.922,0-1.845,0.461-2.307,1.153c-0.461,0.461-0.922,1.614-0.922,2.998s0.461,2.307,0.922,2.998
		c0.461,0.692,1.153,0.923,2.076,0.923c0.692,0,1.384-0.23,1.845-0.691C88.594,71.463,88.825,70.771,89.056,69.849L89.056,69.849z
		 M94.821,72.155l0.231,1.615c-0.461,0-0.922,0-1.384,0s-1.153,0-1.384-0.231c-0.461-0.23-0.691-0.461-0.691-0.923
		c-0.231-0.23-0.231-0.922-0.231-2.076v-5.996h-1.384V63.16h1.384v-2.537l1.615-1.153v3.69h1.845v1.384h-1.845v6.228
		c0,0.461,0,0.691,0.23,0.923c0,0.23,0,0.23,0.23,0.23c0.231,0.23,0.461,0.23,0.692,0.23C94.36,72.155,94.591,72.155,94.821,72.155
		L94.821,72.155z M102.202,73.771v-1.615C101.279,73.309,100.357,74,98.974,74c-0.692,0-1.384-0.229-1.846-0.461
		c-0.461-0.23-0.922-0.461-1.153-0.923c-0.23-0.23-0.461-0.691-0.692-1.384c0-0.23,0-0.692,0-1.614V63.16h1.845v5.767
		c0,0.922,0,1.613,0,1.845c0.23,0.461,0.461,0.923,0.692,1.153c0.461,0.23,0.923,0.461,1.383,0.461c0.461,0,1.154-0.23,1.615-0.461
		c0.461-0.23,0.691-0.692,0.922-1.153c0.231-0.462,0.231-1.153,0.231-2.076V63.16h1.845v10.61H102.202L102.202,73.771z
		 M105.2,73.771V63.16h1.615v1.614c0.461-0.691,0.922-1.153,1.152-1.614c0.462-0.23,0.692-0.23,1.153-0.23
		c0.692,0,1.153,0.23,1.846,0.461l-0.692,1.845c-0.23-0.461-0.691-0.461-1.153-0.461c-0.461,0-0.691,0-1.153,0.231
		c-0.23,0.229-0.461,0.691-0.691,1.152c0,0.461-0.231,1.153-0.231,2.076v5.536H105.2L105.2,73.771z M117.886,70.31l1.846,0.23
		c-0.231,1.154-0.692,1.846-1.615,2.538c-0.691,0.461-1.614,0.922-2.998,0.922s-2.768-0.461-3.69-1.614
		c-0.691-0.923-1.153-2.076-1.153-3.921c0-1.846,0.462-2.998,1.384-4.151c0.692-0.923,2.076-1.384,3.46-1.384
		s2.537,0.461,3.46,1.384c0.922,0.922,1.383,2.306,1.383,4.151c0,0,0,0.23,0,0.462h-7.842c0,1.152,0.231,2.075,0.923,2.536
		c0.462,0.692,1.385,0.923,2.076,0.923s1.384,0,1.845-0.461C117.425,71.694,117.655,71.002,117.886,70.31L117.886,70.31z
		 M112.119,67.312h5.767c0-0.692-0.23-1.384-0.461-1.845c-0.692-0.692-1.385-1.153-2.307-1.153c-0.923,0-1.614,0.23-2.076,0.922
		C112.581,65.697,112.119,66.389,112.119,67.312L112.119,67.312z"/>
	<path fill-rule="evenodd" clip-rule="evenodd" d="M119.961,70.54l1.846-0.23c0,0.692,0.461,1.153,0.923,1.615
		c0.461,0.23,0.922,0.461,1.845,0.461c0.692,0,1.384,0,1.846-0.461c0.23-0.23,0.461-0.692,0.461-1.153c0-0.462,0-0.692-0.461-0.923
		c-0.231-0.23-0.923-0.462-1.846-0.691c-1.384-0.23-2.075-0.462-2.768-0.692c-0.461-0.23-0.692-0.691-1.153-1.153
		c-0.23-0.461-0.23-0.923-0.23-1.384s0-0.922,0.23-1.384c0.23-0.23,0.461-0.691,0.923-0.923c0.23-0.23,0.691-0.461,1.153-0.461
		c0.461-0.23,0.922-0.23,1.383-0.23c0.923,0,1.615,0,2.308,0.23c0.691,0.461,1.153,0.692,1.383,1.153
		c0.231,0.23,0.462,0.922,0.462,1.614l-1.614,0.23c0-0.691-0.23-0.923-0.692-1.384c-0.461-0.23-0.923-0.461-1.614-0.461
		c-0.922,0-1.384,0.23-1.845,0.461c-0.231,0.231-0.462,0.692-0.462,0.923s0,0.461,0.23,0.691c0.231,0.23,0.462,0.23,0.692,0.462
		c0.23,0,0.691,0.23,1.614,0.461c1.153,0.23,2.076,0.692,2.537,0.923c0.462,0,0.923,0.461,1.153,0.923
		c0.461,0.229,0.461,0.922,0.461,1.383c0,0.692-0.23,1.154-0.461,1.615c-0.462,0.692-0.922,1.153-1.614,1.384
		c-0.462,0.231-1.384,0.461-2.076,0.461c-1.384,0-2.537-0.461-3.229-0.922C120.653,72.386,120.191,71.694,119.961,70.54
		L119.961,70.54z M133.569,72.155l0.23,1.615c-0.461,0-0.923,0-1.384,0c-0.692,0-1.152,0-1.384-0.231
		c-0.461-0.23-0.691-0.461-0.923-0.923c0-0.23-0.23-0.922-0.23-2.076v-5.996h-1.153V63.16h1.153v-2.537l1.845-1.153v3.69h1.846
		v1.384h-1.846v6.228c0,0.461,0,0.691,0,0.923c0.23,0.23,0.23,0.23,0.462,0.23c0,0.23,0.23,0.23,0.461,0.23
		S133.108,72.155,133.569,72.155L133.569,72.155z M140.95,73.771v-1.615c-0.923,1.153-2.076,1.845-3.46,1.845
		c-0.461,0-1.153-0.229-1.615-0.461c-0.69-0.23-0.922-0.461-1.383-0.923c-0.23-0.23-0.23-0.691-0.462-1.384c0-0.23,0-0.692,0-1.614
		V63.16h1.615v5.767c0,0.922,0.229,1.613,0.229,1.845c0,0.461,0.231,0.923,0.692,1.153c0.23,0.23,0.692,0.461,1.384,0.461
		c0.462,0,0.923-0.23,1.385-0.461c0.461-0.23,0.922-0.692,1.152-1.153c0-0.462,0.23-1.153,0.23-2.076V63.16h1.846v10.61H140.95
		L140.95,73.771z M150.867,73.771v-1.385c-0.691,0.923-1.614,1.614-2.998,1.614c-0.922,0-1.614-0.229-2.307-0.691
		c-0.691-0.461-1.153-1.153-1.614-2.076c-0.461-0.692-0.691-1.614-0.691-2.768s0.23-2.076,0.691-2.998
		c0.23-0.692,0.691-1.384,1.384-1.846c0.692-0.461,1.615-0.691,2.537-0.691c0.461,0,1.153,0.23,1.614,0.461
		c0.462,0.23,0.923,0.462,1.153,0.923v-5.074h1.845v14.531H150.867L150.867,73.771z M145.102,68.465c0,1.384,0.23,2.307,0.923,2.998
		c0.461,0.692,1.153,0.923,2.076,0.923c0.69,0,1.383-0.23,1.845-0.923c0.691-0.691,0.922-1.614,0.922-2.998s-0.23-2.307-0.922-2.998
		c-0.462-0.692-1.154-1.153-2.076-1.153c-0.691,0-1.384,0.461-1.845,1.153C145.332,65.928,145.102,67.081,145.102,68.465
		L145.102,68.465z M153.866,61.315v-2.076h1.845v2.076H153.866L153.866,61.315z M153.866,73.771V63.16h1.845v10.61H153.866
		L153.866,73.771z M156.633,68.465c0-2.076,0.462-3.459,1.615-4.382c0.923-0.692,1.846-1.153,3.229-1.153
		c1.385,0,2.538,0.461,3.46,1.384c0.923,0.922,1.384,2.306,1.384,3.921c0,1.384-0.23,2.537-0.461,3.229
		c-0.462,0.692-1.153,1.385-1.845,1.846c-0.692,0.462-1.615,0.691-2.538,0.691c-1.383,0-2.768-0.461-3.689-1.614
		C157.095,71.463,156.633,70.079,156.633,68.465L156.633,68.465z M158.479,68.465c0,1.384,0.23,2.307,0.692,2.998
		c0.692,0.692,1.384,0.923,2.306,0.923c0.923,0,1.615-0.23,2.076-0.923c0.692-0.691,0.922-1.614,0.922-2.998
		s-0.229-2.307-0.922-2.998c-0.461-0.692-1.153-1.153-2.076-1.153c-0.922,0-1.613,0.461-2.306,1.153
		C158.709,66.158,158.479,67.081,158.479,68.465L158.479,68.465z"/>
</g>
</svg>
