<?xml version="1.0" encoding="utf-8"?>
<!-- Generator: Adobe Illustrator 16.0.0, SVG Export Plug-In . SVG Version: 6.00 Build 0)  -->
<!DOCTYPE svg PUBLIC "-//W3C//DTD SVG 1.1//EN" "http://www.w3.org/Graphics/SVG/1.1/DTD/svg11.dtd">
<svg version="1.1" id="Layer_1" xmlns="http://www.w3.org/2000/svg" xmlns:xlink="http://www.w3.org/1999/xlink" x="0px" y="0px"
	 width="200px" height="76px" viewBox="0 0 200 76" enable-background="new 0 0 200 76" xml:space="preserve">
<g style="fill: #c5a47e">
	<polygon  points="81.847,53.871 81.72,53.987 81.847,53.871 	"/>
	<polygon fill-rule="evenodd" clip-rule="evenodd"  points="121.419,4.891 121.419,18.415 107.881,18.415 
		107.881,4.891 121.419,4.891 	"/>
	<polygon fill-rule="evenodd" clip-rule="evenodd"  points="121.419,17.415 121.419,30.94 107.881,30.94 
		107.881,17.415 121.419,17.415 	"/>
	<polygon fill-rule="evenodd" clip-rule="evenodd"  points="121.419,29.94 121.419,43.464 107.881,43.464 
		107.881,29.94 121.419,29.94 	"/>
	<polygon fill-rule="evenodd" clip-rule="evenodd"  points="121.419,42.464 121.419,55.988 107.881,55.988 
		107.881,42.464 121.419,42.464 	"/>
	<path  d="M120.759,60.017c-1.697-1.748-3.768-2.613-6.193-2.613c-2.343,0-4.361,0.848-6.059,2.562
		c-1.696,1.697-2.528,3.768-2.528,6.194c0,2.443,0.849,4.53,2.546,6.262c1.714,1.714,3.767,2.579,6.142,2.579
		c2.394,0,4.43-0.849,6.127-2.528c1.68-1.696,2.527-3.733,2.527-6.126C123.32,63.868,122.473,61.748,120.759,60.017z
		 M115.507,70.708h-1.703v-7.4h-1.855l0.991-1.611h2.567V70.708z"/>
		<path  d="M40.391,21.088c-0.145-0.098-0.321-0.146-0.529-0.146c-0.219,0-0.405,0.052-0.561,0.158
			c-0.155,0.106-0.261,0.253-0.318,0.442c-0.043,0.142-0.065,0.375-0.065,0.701v0.16h1.831v-0.262c0-0.313-0.02-0.531-0.059-0.651
			C40.635,21.319,40.535,21.186,40.391,21.088z"/>
		<path  d="M39.513,51.667c-0.063-0.041-0.134-0.063-0.212-0.063c-0.076,0-0.146,0.021-0.208,0.063
			s-0.108,0.095-0.134,0.163c-0.027,0.066-0.041,0.177-0.041,0.329v0.401h0.77l0.005-0.385c0-0.154-0.015-0.268-0.043-0.34
			C39.622,51.765,39.576,51.708,39.513,51.667z"/>
		<polygon  points="39.999,40.825 39.178,41.21 39.999,41.599 		"/>
		<polygon  points="39.999,37.779 39.178,38.164 39.999,38.555 		"/>
		<polygon  points="40.74,30.67 39.178,31.405 40.74,32.146 		"/>
		<path  d="M39.346,29.707c0.148,0.084,0.313,0.126,0.494,0.126c0.27,0,0.496-0.093,0.682-0.279
			c0.185-0.186,0.278-0.412,0.278-0.674c0-0.176-0.043-0.338-0.128-0.488c-0.085-0.149-0.202-0.266-0.35-0.35
			c-0.148-0.083-0.312-0.125-0.493-0.125c-0.18,0-0.342,0.042-0.488,0.125c-0.145,0.084-0.261,0.202-0.348,0.354
			c-0.087,0.152-0.131,0.313-0.131,0.483c0,0.167,0.044,0.326,0.131,0.477C39.081,29.506,39.198,29.622,39.346,29.707z"/>
		<path  d="M62.721,49.313c-2.374,0-4.321-0.636-5.85-1.908c-1.528-1.272-2.478-2.981-2.829-5.128h24.403l0.028-1.453
			c0-5.003-1.5-9.03-4.482-12.087c-2.99-3.048-6.864-4.576-11.631-4.576c-4.482,0-8.213,1.528-11.195,4.576
			c-2.972,3.057-4.463,6.884-4.463,11.509c0,4.501,1.491,8.251,4.482,11.252c2.982,2.991,6.846,4.491,11.594,4.491
			c3.067,0,5.707-0.541,7.929-1.624c2.231-1.092,4.14-2.763,5.736-5.023l-6.4-3.01C68,48.316,65.56,49.313,62.721,49.313z
			 M57.157,32.374c1.595-1.187,3.456-1.785,5.564-1.785c1.946,0,3.665,0.531,5.137,1.585c1.472,1.064,2.459,2.431,2.962,4.121
			H54.375C55.229,34.425,56.16,33.113,57.157,32.374z"/>
		<path  d="M143.265,24.16c-1.462,0-2.896,0.284-4.292,0.854c-1.405,0.56-2.962,1.567-4.69,3.019v-3.096h-7.567V55.21
			h7.567V43.056c0-3.152,0.113-5.203,0.333-6.153c0.427-1.813,1.196-3.238,2.298-4.264c1.101-1.035,2.421-1.548,3.969-1.548
			c1.187,0,2.174,0.314,2.981,0.931c0.807,0.626,1.376,1.529,1.699,2.716s0.484,3.589,0.484,7.207V55.21h7.512V35.212
			c0-3.495-0.874-6.125-2.641-7.9C148.819,25.214,146.275,24.16,143.265,24.16z"/>
		<polygon  points="80.458,24.938 80.458,31.367 92.052,31.367 78.369,55.21 102.905,55.21 102.905,48.781 
			90.048,48.781 103.684,24.938 		"/>
		<path  d="M35.828,27.255c-9.741-9.809-24.636-1.101-24.636,12.289c0,13.323,14.87,21.646,24.636,12.319v3.317h7.848
			V1.891h-7.848V27.255z M40.962,53.846h-2.044v0.507h-0.221v-1.243h0.221v0.506h2.044V53.846z M40.962,52.786h-2.265v-0.451
			c0-0.258,0.012-0.433,0.035-0.523c0.031-0.13,0.097-0.234,0.196-0.317c0.099-0.082,0.224-0.123,0.374-0.123
			c0.151,0,0.275,0.04,0.373,0.12c0.099,0.08,0.165,0.19,0.198,0.331c0.025,0.103,0.037,0.295,0.037,0.575v0.163h1.053V52.786z
			 M40.962,50.95h-2.265v-0.227h2.265V50.95z M40.962,47.979l-1.62,0.222l1.62,0.801v0.058l-1.631,0.812l1.631,0.22v0.219
			l-2.265-0.321V49.95l1.859-0.921l-1.859-0.911V48.08l2.265-0.325V47.979z M40.962,45.93H39.87v1.152h1.093v0.229h-2.265v-0.229
			h0.951V45.93h-0.951v-0.227h2.265V45.93z M40.962,43.424l-1.712,1.493h1.712v0.235h-2.265v-0.05l1.734-1.506h-1.734v-0.224h2.265
			V43.424z M40.962,42.852h-2.265v-0.226h2.265V42.852z M40.962,40.369l-0.745,0.356v0.976l0.745,0.354v0.252l-2.265-1.07v-0.055
			l2.265-1.057V40.369z M40.962,39.807h-2.265v-0.226h2.265V39.807z M40.962,37.324l-0.745,0.355v0.977l0.745,0.354v0.252
			l-2.265-1.07v-0.056l2.265-1.057V37.324z M40.962,35.855h-2.265v-1.299h0.224v1.072h0.708v-1.063h0.222v1.063h0.888v-1.063h0.223
			V35.855z M40.962,32.94l-1.056,0.994h1.056v0.231h-2.265v-0.231h0.851l-0.851-0.903v-0.307l1.017,1.09l1.249-1.174V32.94z
			 M40.962,32.502l-2.265-1.069v-0.056l2.265-1.057V32.502z M38.697,13.498l1.734-1.505h-1.734v-0.224h2.265v0.051l-1.712,1.494
			h1.712v0.234h-2.265V13.498z M38.745,14.61c0.069-0.169,0.18-0.334,0.333-0.497l0.166,0.176c-0.124,0.127-0.218,0.265-0.282,0.416
			c-0.064,0.15-0.096,0.297-0.096,0.439c0,0.177,0.043,0.347,0.131,0.508c0.087,0.16,0.206,0.285,0.355,0.373
			c0.149,0.088,0.307,0.132,0.473,0.132c0.17,0,0.333-0.045,0.486-0.136c0.153-0.092,0.274-0.218,0.362-0.379
			c0.087-0.161,0.131-0.337,0.131-0.529c0-0.233-0.065-0.431-0.197-0.591c-0.131-0.162-0.302-0.257-0.511-0.286v0.722h-0.219v-0.977
			c0.35,0.003,0.628,0.106,0.834,0.312c0.206,0.206,0.308,0.481,0.308,0.826c0,0.418-0.143,0.75-0.428,0.995
			c-0.22,0.188-0.474,0.282-0.762,0.282c-0.214,0-0.414-0.054-0.599-0.162c-0.185-0.107-0.329-0.255-0.434-0.443
			c-0.104-0.188-0.156-0.4-0.156-0.637C38.641,14.96,38.675,14.779,38.745,14.61z M40.962,16.818v0.226h-2.265v-0.226H40.962z
			 M38.72,17.824c0.053-0.093,0.15-0.191,0.292-0.295l0.141,0.185c-0.113,0.085-0.188,0.158-0.224,0.218s-0.054,0.125-0.054,0.196
			c0,0.091,0.028,0.166,0.084,0.225c0.055,0.057,0.124,0.086,0.204,0.086c0.05,0,0.098-0.01,0.144-0.03
			c0.046-0.021,0.096-0.059,0.151-0.112c0.028-0.03,0.104-0.128,0.226-0.293c0.145-0.196,0.274-0.331,0.387-0.403
			c0.113-0.072,0.226-0.109,0.34-0.109c0.164,0,0.307,0.062,0.428,0.186c0.121,0.125,0.181,0.277,0.181,0.456
			c0,0.138-0.037,0.263-0.11,0.374c-0.074,0.112-0.196,0.216-0.369,0.31l-0.115-0.192c0.249-0.135,0.374-0.292,0.374-0.469
			c0-0.076-0.018-0.147-0.053-0.214c-0.035-0.067-0.083-0.119-0.143-0.153c-0.06-0.035-0.123-0.052-0.189-0.052
			c-0.077,0-0.151,0.026-0.224,0.078c-0.101,0.07-0.222,0.2-0.363,0.388c-0.143,0.189-0.246,0.306-0.31,0.353
			c-0.107,0.079-0.222,0.119-0.346,0.119c-0.099,0-0.189-0.022-0.27-0.07c-0.082-0.047-0.146-0.114-0.192-0.199
			c-0.046-0.086-0.07-0.179-0.07-0.279C38.641,18.017,38.667,17.916,38.72,17.824z M40.962,25.422v0.228h-2.265v-0.228h0.951v-1.152
			h-0.951v-0.228h2.265v0.228H39.87v1.152H40.962z M39.834,26.516l0.908,0.513v-0.951h0.22v1.326l-1.13-0.633l-1.135,0.624V26.1
			h0.219v0.924L39.834,26.516z M38.697,22.62v-0.47c0-0.339,0.028-0.584,0.083-0.737c0.076-0.22,0.21-0.392,0.399-0.516
			c0.19-0.125,0.417-0.185,0.68-0.185c0.227,0,0.426,0.048,0.599,0.147c0.172,0.098,0.299,0.225,0.381,0.381
			c0.083,0.157,0.123,0.376,0.123,0.659v0.721H38.697z M38.697,20.271v-1.298h0.224v1.072h0.708v-1.063h0.222v1.063h0.888v-1.063
			h0.223v1.29H38.697z M38.984,28.029c0.229-0.23,0.511-0.346,0.846-0.346c0.332,0,0.613,0.115,0.844,0.346
			c0.231,0.229,0.346,0.511,0.346,0.843c0,0.335-0.114,0.619-0.345,0.85c-0.229,0.23-0.508,0.346-0.835,0.346
			c-0.217,0-0.419-0.052-0.604-0.157c-0.186-0.105-0.332-0.249-0.437-0.431c-0.105-0.183-0.158-0.379-0.158-0.589
			C38.641,28.548,38.755,28.261,38.984,28.029z M27.577,48.78c-5.189,0-8.537-4.391-8.537-9.324c0-4.959,3.326-9.197,8.507-9.197
			c5.243,0,8.315,4.094,8.315,9.167C35.862,44.496,32.887,48.78,27.577,48.78z"/>
		<path  d="M189,40.823c0-5.003-1.5-9.03-4.481-12.087c-2.992-3.048-6.866-4.576-11.633-4.576
			c-4.481,0-8.213,1.528-11.195,4.576c-2.971,3.057-4.462,6.884-4.462,11.509c0,4.501,1.491,8.251,4.481,11.252
			c2.981,2.991,6.847,4.491,11.595,4.491c3.066,0,5.706-0.541,7.928-1.624c2.231-1.092,4.14-2.763,5.735-5.023l-6.399-3.01
			c-2.042,1.985-4.481,2.981-7.321,2.981c-2.374,0-4.32-0.636-5.85-1.908c-1.528-1.272-2.479-2.981-2.829-5.128h24.403L189,40.823z
			 M164.901,36.294c0.854-1.869,1.784-3.181,2.781-3.92c1.596-1.187,3.456-1.785,5.564-1.785c1.945,0,3.666,0.531,5.137,1.585
			c1.473,1.064,2.459,2.431,2.963,4.121H164.901z"/>
</g>
</svg>
