<?xml version="1.0" encoding="utf-8"?>
<!-- Generator: Adobe Illustrator 16.0.0, SVG Export Plug-In . SVG Version: 6.00 Build 0)  -->
<!DOCTYPE svg PUBLIC "-//W3C//DTD SVG 1.1//EN" "http://www.w3.org/Graphics/SVG/1.1/DTD/svg11.dtd">
<svg version="1.1" id="Layer_1" xmlns="http://www.w3.org/2000/svg" xmlns:xlink="http://www.w3.org/1999/xlink" x="0px" y="0px"
	 width="200px" height="76px" viewBox="0 0 200 76" enable-background="new 0 0 200 76" xml:space="preserve">
<g style="fill: #c5a47e">
	<path d="M54.641,56.036l-2.058-5.593c0,0-3.343,3.729-8.357,3.729c-4.434,0-7.585-3.856-7.585-10.027
		c0-7.906,3.986-10.734,7.908-10.734c5.656,0,7.456,3.665,8.999,8.356l2.057,6.429c2.058,6.235,5.914,11.248,17.034,11.248
		c7.972,0,13.371-2.441,13.371-8.869c0-5.207-2.958-7.907-8.485-9.193l-4.115-0.9c-2.827-0.643-3.662-1.799-3.662-3.728
		c0-2.186,1.734-3.471,4.563-3.471c3.086,0,4.756,1.157,5.014,3.921l6.429-0.771c-0.515-5.785-4.5-8.164-11.058-8.164
		c-5.785,0-11.441,2.186-11.441,9.192c0,4.372,2.121,7.135,7.457,8.421l4.372,1.028c3.278,0.771,4.37,2.121,4.37,3.985
		c0,2.379-2.314,3.342-6.686,3.342c-6.492,0-9.192-3.406-10.734-8.099l-2.122-6.429c-2.699-8.356-7.007-11.441-15.556-11.441
		c-9.449,0-14.464,5.978-14.464,16.135c0,9.77,5.015,15.041,14.015,15.041C51.169,59.443,54.641,56.036,54.641,56.036L54.641,56.036
		z"/>
	<path d="M27.131,53.015c-0.643,0.194-1.284,0.322-2.12,0.322c-1.543,0-2.636-0.706-2.636-2.571V15.73h-6.749v36.642
		c0,4.821,3.342,6.816,7.264,6.816c1.286,0,2.508-0.194,4.051-0.579L27.131,53.015L27.131,53.015z"/>
	<path d="M108.443,51.987c-1.67,1.156-3.085,1.736-5.014,1.736c-2.443,0-3.792-1.286-3.792-4.437V34.245h8.872
		v-5.271h-8.808v-7.136l-6.814,0.836v6.3h-4.307v5.271h4.307v16.457c0,5.914,3.407,8.741,8.935,8.741
		c3.023,0,5.721-0.577,7.843-1.799L108.443,51.987L108.443,51.987z"/>
	<path d="M114.307,54.302c0,2.635,2.059,4.756,4.691,4.756c2.766,0,4.822-2.121,4.822-4.756
		c0-2.7-2.057-4.757-4.822-4.757C116.365,49.545,114.307,51.602,114.307,54.302L114.307,54.302z"/>
	<path d="M130.81,34.245v24.428h6.748V34.245h7.587v-5.271h-7.587v-2.7c0-4.05,1.736-5.335,4.565-5.335
		c1.992,0,3.342,0.449,4.884,1.286l1.094-5.658c-1.798-0.836-3.921-1.286-6.492-1.286c-5.656,0-10.799,2.7-10.799,10.735v2.958
		h-4.309v5.271H130.81L130.81,34.245z"/>
	<path d="M172.042,34.824c-0.773-4.821-3.923-6.558-8.038-6.558c-4.112,0-7.648,1.865-9.192,6.428l-0.835-5.721
		h-5.465v29.699h6.75V41.895c0-5.722,2.957-7.907,6.107-7.907c3.277,0,4.627,2.185,4.627,5.721v18.964h6.687V41.831
		c0-5.658,3.021-7.843,6.171-7.843c3.214,0,4.565,2.185,4.565,5.721v18.964h6.748V37.331c0-6.364-3.729-9.064-8.679-9.064
		C177.312,28.266,173.581,30.131,172.042,34.824L172.042,34.824z"/>
</g>
</svg>
