<?xml version="1.0" encoding="utf-8"?>
<!-- Generator: Adobe Illustrator 16.0.0, SVG Export Plug-In . SVG Version: 6.00 Build 0)  -->
<!DOCTYPE svg PUBLIC "-//W3C//DTD SVG 1.1//EN" "http://www.w3.org/Graphics/SVG/1.1/DTD/svg11.dtd">
<svg version="1.1" id="Layer_1" xmlns="http://www.w3.org/2000/svg" xmlns:xlink="http://www.w3.org/1999/xlink" x="0px" y="0px"
	 width="200px" height="76px" viewBox="0 0 200 76" enable-background="new 0 0 200 76" xml:space="preserve">
	<g style="fill: #c5a47e">
		<path d="M69.472,23.89c2.892,0.601,6.616,0.801,8.927-1.198c1.739-1.466,2.638-3.724,1.933-5.929
			c-0.4-0.959-1.233-1.972-2.199-2.465c-3.144-1.399-7.574-1.299-10.191,1.199c-1.439,1.465-2.105,3.504-1.599,5.529
			C66.682,22.406,68.194,23.518,69.472,23.89z"/>
		<path d="M62.278,15.031l-0.067-0.066h-11.99c-0.6,2.598-1.199,5.195-1.799,7.794l-1.598,7.128l-1.199,5.329
			c-0.293,0.779-0.207,1.725-0.6,2.465c-1.925-4.796-3.637-9.686-5.462-14.522l-3.065-8.193H24.174l-1.599,7.194l-2.398,10.726
			l-3.063,13.79c-0.307,1.592-0.7,3.156-1.066,4.729l-1.866,8.461l0.067,0.066l12.257-0.066c1.532-7.4,3.251-14.729,4.996-22.05
			l0.2-0.333c0.2,0.28,0.267,0.627,0.4,0.934l3.13,8.125l2.465,6.463l2.465,6.461l0.267,0.467l11.724-0.066
			c0.533-2.359,1.067-4.703,1.599-7.061l1.732-7.662c0.799-3.963,1.858-7.827,2.665-11.791l1.598-7.062L62.278,15.031z"/>
		<path d="M105.578,46.006l-1.133-4.129l12.258-14.855v-0.134l-13.723,0.067l-0.6,0.732l-9.06,10.991
			c-0.073,0-0.16,0.014-0.2-0.066c0.72-2.831,1.219-5.762,1.933-8.594l1.731-7.727c0.533-2.426,1.066-4.837,1.599-7.262l-0.066-0.066
			H86.193l-0.067,0.133l-2.131,9.594l-1.599,7.193c-2.064,9.352-4.13,18.694-6.195,28.045l11.924-0.066
			c1.373-5.549,2.592-11.158,3.931-16.721l0.133-0.133c0.26,0.072,0.04,0.346,0.2,0.465l2.198,7.461
			c0.992,2.965,1.732,6.029,2.731,8.994l12.19-0.066l-0.865-2.998L105.578,46.006z"/>
		<path d="M137.82,25.889c-5.51-0.866-11.191-0.133-15.789,2.198c-7.953,4.31-11.17,12.95-10.324,21.717
			c0.459,4.309,3.496,8.666,7.727,10.125c4.33,1.492,9.799,1.578,14.389,0.6c6.229-0.992,11.73-6.549,13.723-12.391
			c1.594-4.463,2.771-10.832,0.268-15.254C145.84,29.113,141.791,26.662,137.82,25.889z M134.756,40.479
			c-0.633,3.004-1.359,5.969-2.266,8.859c-0.525,1.279-1.865,2.277-3.197,2.465c-1.393,0.227-2.832,0.041-3.664-1.133
			c-0.826-1.1-0.139-2.57-0.066-3.797c0.586-3.191,1.439-6.262,2.332-9.327c0.633-1.559,2.264-2.418,3.797-2.664
			c1.232-0.027,2.438,0.159,3.197,1.132C135.848,37.42,134.795,38.986,134.756,40.479z"/>
		<path d="M186.516,29.886c-0.793-1.485-2.34-2.838-3.863-3.397c-5.637-1.392-11.152,0.726-14.789,5.129l-0.066-0.066
			c0.406-1.398,0.525-2.932,0.932-4.329c-0.033-0.04-0.094-0.074-0.066-0.134h-12.123c-0.959,4.289-1.906,8.567-2.865,12.857
			l-4.33,19.984h12.125l0.199-0.732l2.131-9.727l1.666-7.793c0.268-1.793,1.459-3.598,3.131-4.398
			c1.094-0.625,2.818-0.525,3.863,0.134c1,0.733,1.398,1.838,1.199,3.131l-4.195,19.318l0.066,0.066h11.924
			c0.693-3.092,1.371-6.17,2.064-9.26l1.531-6.994l1.4-6.396C186.975,35.023,187.787,32.057,186.516,29.886z"/>
		<path d="M65.543,26.956c-0.867,3.863-1.732,7.728-2.598,11.59l-1.866,8.328c-0.859,4.396-2.004,8.66-2.865,13.057
			h11.991l1.533-6.729c1.885-8.766,3.957-17.459,5.795-26.246H65.543z"/>
	</g>
</svg>
