<?xml version="1.0" encoding="utf-8"?>
<!-- Generator: Adobe Illustrator 16.0.0, SVG Export Plug-In . SVG Version: 6.00 Build 0)  -->
<!DOCTYPE svg PUBLIC "-//W3C//DTD SVG 1.1//EN" "http://www.w3.org/Graphics/SVG/1.1/DTD/svg11.dtd">
<svg version="1.1" id="Layer_1" xmlns="http://www.w3.org/2000/svg" xmlns:xlink="http://www.w3.org/1999/xlink" x="0px" y="0px"
	 width="200px" height="76px" viewBox="0 0 200 76" enable-background="new 0 0 200 76" xml:space="preserve">
<g style="fill: #333">
	<polygon fill="none" stroke="#333" stroke-width="1.9119" stroke-miterlimit="2.6131" points="98.213,1.833 108.074,7.527 
		117.936,13.22 117.936,24.606 117.936,35.993 108.074,41.686 98.213,47.379 88.353,41.686 78.492,35.993 78.492,24.606 
		78.492,13.22 88.353,7.527 98.213,1.833 	"/>
	<polyline fill="none" stroke="#333" stroke-width="1.9119" stroke-miterlimit="2.6131" points="117.936,13.22 98.335,24.697 
		78.514,13.253 	"/>
	<path  d="M74.619,74.928v-4.334h1.492c0.337,0,0.594,0.021,0.771,0.063c0.248,0.057,0.46,0.162,0.635,0.311
		c0.229,0.193,0.399,0.439,0.512,0.74c0.114,0.301,0.17,0.645,0.17,1.031c0,0.328-0.038,0.619-0.115,0.873s-0.176,0.465-0.295,0.631
		c-0.121,0.168-0.252,0.299-0.396,0.393c-0.142,0.096-0.315,0.17-0.516,0.219c-0.203,0.049-0.435,0.074-0.697,0.074H74.619
		L74.619,74.928z M75.193,74.418h0.924c0.286,0,0.51-0.025,0.672-0.078c0.162-0.055,0.291-0.129,0.388-0.227
		c0.135-0.135,0.241-0.318,0.317-0.549c0.075-0.23,0.114-0.508,0.114-0.836c0-0.453-0.075-0.803-0.223-1.047
		c-0.148-0.244-0.329-0.408-0.542-0.49c-0.153-0.059-0.4-0.088-0.741-0.088h-0.909V74.418L75.193,74.418z M80.486,74.928v-4.334
		h3.128v0.51h-2.553v1.33h2.39v0.508h-2.39v1.477h2.656v0.51H80.486L80.486,74.928z M85.808,73.535l0.539-0.049
		c0.025,0.219,0.084,0.396,0.178,0.537c0.094,0.139,0.239,0.252,0.436,0.338s0.418,0.129,0.665,0.129
		c0.219,0,0.412-0.031,0.579-0.098c0.168-0.064,0.292-0.154,0.374-0.268c0.082-0.115,0.123-0.238,0.123-0.371
		c0-0.137-0.04-0.254-0.118-0.355s-0.208-0.186-0.39-0.256c-0.116-0.045-0.373-0.115-0.771-0.211s-0.677-0.186-0.836-0.27
		c-0.207-0.109-0.36-0.244-0.461-0.404c-0.102-0.16-0.152-0.342-0.152-0.539c0-0.221,0.063-0.426,0.187-0.615
		s0.305-0.334,0.544-0.434c0.238-0.098,0.503-0.148,0.794-0.148c0.32,0,0.604,0.053,0.849,0.156s0.434,0.254,0.565,0.457
		c0.132,0.199,0.203,0.428,0.213,0.682l-0.55,0.043c-0.03-0.273-0.129-0.48-0.3-0.619c-0.17-0.141-0.422-0.209-0.755-0.209
		c-0.347,0-0.6,0.063-0.758,0.189c-0.158,0.127-0.238,0.281-0.238,0.459c0,0.156,0.057,0.285,0.168,0.385
		c0.111,0.1,0.398,0.203,0.864,0.309c0.466,0.105,0.786,0.197,0.959,0.277c0.251,0.115,0.438,0.262,0.558,0.439
		c0.12,0.178,0.179,0.383,0.179,0.615c0,0.23-0.065,0.445-0.197,0.65c-0.132,0.203-0.321,0.361-0.568,0.475S87.961,75,87.651,75
		c-0.391,0-0.719-0.059-0.983-0.172c-0.265-0.113-0.472-0.285-0.622-0.516C85.895,74.084,85.816,73.824,85.808,73.535L85.808,73.535
		z M91.614,74.928v-4.334h0.575v4.334H91.614L91.614,74.928z M96.711,73.227v-0.508h1.833v1.605
		c-0.282,0.223-0.572,0.393-0.872,0.506C97.374,74.943,97.066,75,96.751,75c-0.425,0-0.812-0.092-1.16-0.273
		c-0.347-0.182-0.61-0.445-0.787-0.789c-0.177-0.346-0.266-0.73-0.266-1.156c0-0.422,0.088-0.814,0.264-1.18
		c0.177-0.365,0.43-0.637,0.761-0.813c0.331-0.178,0.712-0.268,1.144-0.268c0.313,0,0.596,0.051,0.849,0.152
		c0.253,0.102,0.452,0.244,0.595,0.424c0.145,0.182,0.253,0.418,0.328,0.711l-0.517,0.141c-0.065-0.221-0.146-0.395-0.242-0.521
		c-0.097-0.125-0.234-0.227-0.414-0.301c-0.178-0.076-0.377-0.115-0.596-0.115c-0.261,0-0.487,0.041-0.679,0.121
		c-0.19,0.078-0.344,0.184-0.462,0.314c-0.117,0.131-0.208,0.273-0.272,0.43c-0.11,0.268-0.166,0.559-0.166,0.873
		c0,0.387,0.066,0.711,0.199,0.973c0.133,0.26,0.327,0.453,0.58,0.578c0.254,0.127,0.523,0.189,0.809,0.189
		c0.248,0,0.49-0.047,0.726-0.143c0.236-0.098,0.415-0.199,0.537-0.309v-0.813H96.711L96.711,73.227z M100.871,74.928v-4.334h0.588
		l2.273,3.4v-3.4h0.551v4.334h-0.59l-2.271-3.4v3.4H100.871L100.871,74.928z M108.51,74.928v-4.334h0.574v4.334H108.51
		L108.51,74.928z M111.574,74.928v-4.334h0.588l2.273,3.4v-3.4h0.551v4.334h-0.59l-2.271-3.4v3.4H111.574L111.574,74.928z
		 M120.521,73.406l0.574,0.146c-0.119,0.471-0.336,0.828-0.648,1.076c-0.311,0.246-0.691,0.371-1.143,0.371
		c-0.465,0-0.846-0.096-1.137-0.285c-0.293-0.189-0.516-0.465-0.668-0.826s-0.229-0.746-0.229-1.16c0-0.451,0.086-0.844,0.258-1.18
		c0.174-0.336,0.418-0.592,0.736-0.766c0.316-0.174,0.666-0.262,1.049-0.262c0.434,0,0.797,0.111,1.092,0.332s0.5,0.529,0.617,0.93
		l-0.563,0.133c-0.1-0.314-0.246-0.545-0.438-0.688c-0.189-0.145-0.43-0.217-0.719-0.217c-0.332,0-0.611,0.08-0.834,0.24
		c-0.223,0.158-0.381,0.373-0.471,0.641c-0.09,0.27-0.135,0.547-0.135,0.832c0,0.369,0.053,0.691,0.16,0.965
		c0.107,0.275,0.273,0.48,0.498,0.617c0.227,0.135,0.471,0.203,0.734,0.203c0.32,0,0.59-0.094,0.813-0.277
		C120.293,74.047,120.441,73.771,120.521,73.406L120.521,73.406z M121.258,74.928v-0.605h0.605v0.605H121.258L121.258,74.928z"/>
	<path  d="M84.929,63.797c0.592,0.428,1.238,0.766,1.936,1.018l-0.891,1.727c-0.364-0.109-0.721-0.26-1.07-0.453
		c-0.075-0.039-0.612-0.393-1.609-1.068c-0.785,0.342-1.657,0.516-2.612,0.516c-1.843,0-3.291-0.545-4.335-1.631
		c-1.045-1.09-1.567-2.617-1.567-4.588c0-1.963,0.525-3.492,1.573-4.58c1.047-1.094,2.469-1.639,4.263-1.639
		c1.779,0,3.19,0.545,4.232,1.639c1.042,1.088,1.564,2.613,1.564,4.578c0,1.035-0.146,1.949-0.436,2.738
		C85.758,62.652,85.409,63.236,84.929,63.797L84.929,63.797z M82.984,62.434c0.31-0.367,0.542-0.809,0.698-1.328
		c0.154-0.52,0.232-1.115,0.232-1.789c0-1.389-0.305-2.424-0.916-3.111c-0.612-0.684-1.411-1.029-2.397-1.029
		c-0.988,0-1.791,0.346-2.402,1.035c-0.614,0.689-0.922,1.727-0.922,3.111c0,1.406,0.308,2.459,0.922,3.154
		c0.615,0.697,1.392,1.047,2.33,1.047c0.352,0,0.682-0.059,0.992-0.172c-0.489-0.322-0.989-0.57-1.495-0.75l0.679-1.408
		C81.498,61.471,82.258,61.881,82.984,62.434L82.984,62.434z M88.32,53.316h2.43v6.504c0,1.033,0.031,1.701,0.09,2.006
		c0.103,0.49,0.346,0.887,0.732,1.184c0.388,0.299,0.916,0.447,1.586,0.447c0.679,0,1.193-0.141,1.539-0.422
		c0.347-0.283,0.553-0.625,0.623-1.037c0.07-0.41,0.106-1.088,0.106-2.039v-6.643h2.43v6.311c0,1.441-0.064,2.461-0.195,3.057
		c-0.131,0.594-0.372,1.098-0.724,1.508c-0.349,0.41-0.818,0.734-1.405,0.979c-0.589,0.242-1.355,0.365-2.302,0.365
		c-1.143,0-2.008-0.131-2.598-0.396c-0.589-0.266-1.056-0.609-1.399-1.033c-0.344-0.426-0.567-0.867-0.676-1.334
		c-0.159-0.686-0.237-1.703-0.237-3.047V53.316L88.32,53.316z M100.424,53.316h4.798c0.953,0,1.66,0.039,2.127,0.117
		c0.469,0.082,0.885,0.246,1.254,0.494c0.369,0.252,0.676,0.584,0.922,1s0.369,0.887,0.369,1.402c0,0.559-0.15,1.076-0.453,1.543
		c-0.301,0.469-0.713,0.818-1.229,1.053c0.729,0.215,1.287,0.578,1.682,1.092c0.391,0.514,0.586,1.117,0.586,1.814
		c0,0.547-0.125,1.078-0.379,1.594c-0.254,0.518-0.602,0.93-1.043,1.24c-0.438,0.309-0.98,0.498-1.625,0.57
		c-0.402,0.041-1.377,0.07-2.922,0.082h-4.087V53.316L100.424,53.316z M102.855,55.311v2.766h1.586c0.941,0,1.527-0.014,1.758-0.041
		c0.412-0.049,0.74-0.191,0.977-0.428c0.238-0.238,0.355-0.547,0.355-0.934c0-0.371-0.104-0.67-0.307-0.902
		c-0.205-0.23-0.51-0.371-0.912-0.418c-0.24-0.029-0.93-0.043-2.066-0.043H102.855L102.855,55.311z M102.855,60.07v3.219h2.246
		c0.871,0,1.428-0.025,1.662-0.072c0.359-0.066,0.652-0.227,0.879-0.48c0.227-0.258,0.342-0.596,0.342-1.023
		c0-0.363-0.088-0.666-0.264-0.918c-0.172-0.252-0.428-0.436-0.756-0.551c-0.33-0.115-1.049-0.174-2.152-0.174H102.855
		L102.855,60.07z M112.529,65.318V53.316h8.883v2.027h-6.453v2.666h6v2.027h-6v3.252h6.688v2.029H112.529L112.529,65.318z"/>
</g>
</svg>
