<?xml version="1.0" encoding="utf-8"?>
<!-- Generator: Adobe Illustrator 16.0.0, SVG Export Plug-In . SVG Version: 6.00 Build 0)  -->
<!DOCTYPE svg PUBLIC "-//W3C//DTD SVG 1.1//EN" "http://www.w3.org/Graphics/SVG/1.1/DTD/svg11.dtd">
<svg version="1.1" id="Layer_1" xmlns="http://www.w3.org/2000/svg" xmlns:xlink="http://www.w3.org/1999/xlink" x="0px" y="0px"
	 width="200px" height="76px" viewBox="0 0 200 76" enable-background="new 0 0 200 76" xml:space="preserve">
	<g style="fill: #333">
		<path d="M42.813,37.825c-7.088-4.032-16.376-2.688-24.076-5.132c-0.854-0.367-1.223-1.223-0.978-2.201
			c0.366-0.611,0.978-1.222,1.589-1.588c5.622-2.078,13.076-1.467,18.332,0.855c1.711,0.978,3.423,2.688,3.423,4.767h3.909v-9.655
			H40.98c-0.122,0.611,0.244,1.711-0.733,1.466c-4.277-2.077-9.044-3.177-14.055-3.299c-6.233,0.489-12.955,1.712-16.132,7.454
			c-0.978,2.201-0.733,5.134,0.855,6.844c4.399,4.034,10.388,4.156,16.133,4.889c4.032,0.734,8.677,0.367,11.731,3.178
			c0.856,1.1-0.366,2.078-1.222,2.934c-5.621,3.301-14.055,2.078-19.433-0.733c-1.955-1.101-3.666-3.056-3.666-5.378l-4.399,0.123
			v10.877h4.644l0.123-1.711c5.987,1.467,11.854,3.911,18.575,2.933c5.257-0.854,11.733-2.321,13.322-8.31
			C47.214,42.836,45.869,39.537,42.813,37.825z"/>
		<path d="M91.822,30.004c-7.333-7.577-20.165-8.678-29.454-4.521c-5.256,2.444-10.511,7.454-10.266,13.811
			c0,5.865,4.766,10.633,9.777,13.076c8.311,4.156,20.531,3.299,27.864-2.443c4.399-3.424,6.967-8.924,5.377-14.423
			C94.388,33.426,93.41,31.594,91.822,30.004z M83.755,45.77c-3.788,4.034-10.265,5.01-15.398,3.055
			c-3.666-1.465-7.088-5.254-7.211-9.287c-0.122-3.788,1.956-6.967,5.012-9.045c4.399-3.055,11.61-3.055,15.888,0.245
			c1.833,1.345,3.299,3.179,3.91,5.134C87.422,39.293,86.2,43.203,83.755,45.77z"/>
		<path d="M127.386,29.639c1.955,0.365,4.767-0.979,5.744,1.099l-0.123,12.222L113.82,25.604H99.276v3.667
			c1.589,0,3.178,0,4.768,0.122l0.366,0.367l0.121,19.555l-0.487,0.489l-4.646,0.122v3.666h16.622v-3.666h-5.012l-0.488-0.368V34.159
			h0.122l21.877,19.433h6.11V34.037c0.122-1.467-0.489-3.423,0.855-4.398h4.521v-4.035h-16.621V29.639z"/>
		<path d="M175.416,25.604v4.035c0.978,0.121,2.688-0.611,3.056,0.61l-7.089,7.944l-6.843-7.456l-0.245-0.733
			c0.732-0.733,2.078-0.244,3.056-0.365v-4.035H147.43v4.035h5.132l12.466,13.687v5.989l-0.244,0.489l-5.011,0.122v3.544h19.433
			v-3.544c-1.59,0-3.178-0.122-4.767,0c-0.366,0-0.611-0.245-0.733-0.49v-5.743l13.199-14.054h4.522v-4.035H175.416z"/>
	</g>
</svg>
