<?xml version="1.0" encoding="utf-8"?>
<!-- Generator: Adobe Illustrator 16.0.0, SVG Export Plug-In . SVG Version: 6.00 Build 0)  -->
<!DOCTYPE svg PUBLIC "-//W3C//DTD SVG 1.1//EN" "http://www.w3.org/Graphics/SVG/1.1/DTD/svg11.dtd">
<svg version="1.1" id="Layer_1" xmlns="http://www.w3.org/2000/svg" xmlns:xlink="http://www.w3.org/1999/xlink" x="0px" y="0px"
	 width="200px" height="76px" viewBox="0 0 200 76" enable-background="new 0 0 200 76" xml:space="preserve">
	<g style="fill: #333">
		<path d="M177.058,26.261c0.366-2.381,0.482-7.591,0.41-7.999c-0.061-1.649-0.287-3.723-1.876-4.883
			c-10.134-2.748-20.756,0.183-27.472,7.875c0.917-0.794,2.137-0.977,3.236-1.405C160.758,18.446,169.67,21.315,177.058,26.261z"/>
		<path d="M184.812,18.142c2.808,4.822,2.014,11.11,1.342,16.666l2.687,3.968c2.014,3.785,4.091,7.753,3.297,12.393
			l1.526-3.724C197.081,36.577,193.663,25.284,184.812,18.142z"/>
		<path d="M38.539,25.467c-4.456,1.404-8.119,5.982-8.668,10.623c-0.549,5.005,0.733,9.767,4.762,12.88
			c4.945,3.419,12.636,2.992,17.765,0.307c2.014-0.978-0.122-2.809-0.183-4.214c-0.062-0.305-0.366-0.854-0.855-0.67
			c-3.174,1.587-7.265,2.808-10.866,1.341c-2.137-0.915-3.908-3.173-3.846-5.493l17.582-0.061l0.367-0.367
			c0.244-3.174,0.061-6.409-1.282-9.035C50.688,25.222,44.094,23.757,38.539,25.467z M36.647,35.54
			c0.306-2.32,1.892-4.883,4.334-5.555c2.564-0.794,5.617,0,6.838,2.563c0.366,0.978,0.61,1.893,0.61,2.992H36.647z"/>
		<path d="M74.496,25.222c-2.869-0.794-6.349-0.426-9.218,0.245c-2.38,0.611-4.944,2.747-5.616,5.25
			c-1.1,5.982-0.428,12.759-0.611,19.108c0.122,0.488,0.305,1.222,0.977,1.282l4.823-0.123l0.549-0.488l0.122-13.247
			c0.184-1.832-0.244-3.907,0.61-5.433c1.649-2.503,5.067-2.259,7.632-1.892c0.549-0.306,0.427-0.979,0.67-1.465
			C74.435,27.359,75.351,26.138,74.496,25.222z"/>
		<path d="M92.384,25.527c-4.396-1.404-9.828-0.854-13.248,2.197c-4.579,3.787-5.495,10.135-3.724,15.567
			c1.282,4.274,5.861,7.57,10.134,7.998c5.25,0.549,10.073-1.159,13.065-5.557c2.625-4.089,2.929-10.621,0.305-14.772
			C97.573,28.397,94.886,26.443,92.384,25.527z M92.323,44.27c-1.343,1.71-3.235,2.441-5.434,2.198
			c-2.258-0.062-4.272-2.075-4.884-4.092c-1.16-3.539-1.037-8.18,1.466-10.988c1.404-1.527,3.357-1.953,5.495-1.648
			c1.465,0.306,2.93,1.342,3.724,2.747C94.459,35.846,94.459,41.095,92.323,44.27z"/>
		<path d="M20.347,37.677c3.112-3.419,5.86-6.96,7.448-10.989c0.061-0.489,0.671-1.221-0.122-1.525h-4.825
			L22.3,25.527c-1.588,2.87-3.235,5.739-5.616,8.181c-1.282-1.344-1.955-2.992-2.992-4.457c-0.733-1.343-1.1-2.869-2.198-4.029
			l-6.166-0.06l-0.367,0.305c1.16,4.762,4.151,8.729,7.265,12.637c-3.419,3.175-5.677,6.777-7.449,10.562
			c-0.122,0.794-1.22,1.709-0.305,2.442l5.373-0.123l0.427-0.366c1.526-3.113,3.174-6.287,5.8-8.974
			c1.526,1.526,2.87,3.357,3.845,5.189c0.855,1.343,1.283,2.931,2.199,4.15l5.921,0.123c0.428,0,0.794-0.306,0.733-0.733
			C27.001,45.733,24.131,41.522,20.347,37.677z"/>
		<path d="M117.78,37.616c3.113-3.298,5.799-6.777,7.325-10.685c0.122-0.548,0.794-1.404,0-1.769h-4.822l-0.673,0.426
			c-1.525,2.871-3.112,5.678-5.493,8.182c-0.977-1.162-1.711-2.442-2.564-3.724c-0.977-1.526-1.465-3.358-2.626-4.824l-6.165-0.06
			c-0.428,0.122-0.366,0.549-0.366,0.916c1.588,4.395,4.273,8.302,7.204,12.087c-3.662,3.419-6.228,7.447-7.937,11.721
			c-0.245,0.366-0.183,1.038,0.243,1.222c1.832-0.123,3.847,0.183,5.557-0.245c1.648-3.235,3.297-6.47,6.043-9.218
			c2.809,2.687,4.335,5.922,5.861,9.218c2.014,0.366,4.396,0.185,6.47,0.122c0.184-0.122,0.429-0.304,0.307-0.548
			C124.556,45.674,121.442,41.522,117.78,37.616z"/>
		<path d="M142.261,31.877l0.01,0.01c0.002-0.008,0.004-0.015,0.005-0.022
			C142.271,31.869,142.269,31.873,142.261,31.877z"/>
		<path d="M142.32,31.693c-0.015,0.058-0.028,0.115-0.045,0.172C142.368,31.809,142.32,31.751,142.32,31.693z"/>
		<path d="M173.028,39.509c-4.396-3.358-9.158-5.983-14.224-7.754c-4.945-1.465-11.845-3.114-16.484,0.182l-0.05-0.05
			c-3.073,11.232,1.082,22.739,10.673,29.475c2.137,0.489,3.906-0.731,5.555-1.77C165.52,54.16,169.731,46.834,173.028,39.509z"/>
		<path d="M190.097,45.012c-0.626-1.541-1.635-3.86-1.635-3.86c-1.407-2.463-2.856-4.579-4.37-6.421
			c0.371-1.896,0.784-3.757,0.888-5.613c0.294-5.243,0.001-7.22-0.234-7.96c-0.267-1.885-0.782-3.752-2.437-4.788
			c0.731,0.977,1.036,2.076,1.403,3.236c0.205,0.307,0.227,0.764,0.266,1.192l-0.043,0.007c0.579,3.647-0.083,8.373-0.083,8.373
			l-0.022-0.208c-0.195,1.524-0.422,3.068-0.707,4.629c-0.473-0.531-0.953-1.038-1.441-1.522c0.285-1.484,0.491-2.866,0.651-4.123
			c0,0,0.276-1.179,0.359-3.501c0.046-1.281-0.111-2.536-0.261-3.404c0.028,0.027,0.051,0.054,0.06,0.084
			c-0.061-0.184,0.063-0.429-0.061-0.611c-0.428-2.014-0.488-4.517-2.502-5.494c1.061,1.509,1.458,3.529,1.704,5.266l-0.019,0.013
			c0.332,2.901-0.432,7.5-0.432,7.5c-0.131,1.024-0.293,2.134-0.505,3.314c-0.421-0.385-0.85-0.755-1.282-1.112
			c0.198-0.945,0.414-1.894,0.525-2.865c0.214-1.867,0.45-6.174,0.117-7.915c-0.009-0.053-0.02-0.102-0.029-0.148
			c-0.073-1.056-0.264-2.054-0.631-3.016c-0.305-0.793-0.61-2.015-1.709-2.076c1.139,1.651,1.481,3.567,1.621,5.6
			c-0.041,2.189-0.516,7.375-0.516,7.375c-0.118,0.752-0.253,1.498-0.399,2.237c-3.673-2.787-9.705-5.045-14.55-6.832l-0.063,0.172
			c-3.288-0.976-6.804-1.401-10.512-1.349c-2.748,0.245-5.86,0.367-7.325,2.869c4.967-3.025,12.124-1.939,17.475-0.537l-0.033,0.09
			c4.935,1.82,11.008,4.123,14.699,7.042c-0.174,0.768-0.363,1.526-0.57,2.28c-3.563-2.867-9.635-5.416-14.83-7.333l-0.027,0.075
			c-4.191-1.287-8.66-1.784-13.356-1.432c-1.953,0.428-4.579,0.672-5.188,2.93c5.179-3.393,12.97-1.852,18.166-0.471l-0.054,0.144
			c5.258,1.939,11.333,4.528,14.886,7.482c-0.221,0.728-0.455,1.451-0.709,2.167c-3.635-2.958-9.574-5.614-14.714-7.549
			c0.037-0.006,0.078-0.008,0.129-0.004c-0.245-0.077-0.496-0.152-0.747-0.228c-0.042-0.016-0.085-0.031-0.125-0.047l-0.004,0.008
			c-4.915-1.461-10.899-2.555-15.853-0.77c-0.915,0.55-2.259,0.916-2.196,2.197c4.924-3.477,12.376-2.003,17.663-0.383l-0.07,0.192
			c5.318,1.962,11.648,4.752,15.432,7.904c-2.033,5.311-4.608,10.299-8.442,15.069l0.156,0.126c-3.363,4.269-7.59,8.501-12.591,9.57
			c0.306,0.121,0.55,0.305,0.854,0.427c6.228-1.466,11.417-7.388,14.958-12.638c-0.061,0.08-0.118,0.122-0.175,0.144
			c2.605-3.804,4.552-7.751,6.174-11.892c0.494,0.44,0.979,0.894,1.453,1.359c-1.619,4.376-3.768,9.171-7.66,14.061l0.04,0.033
			c-3.559,4.422-8.211,8.445-13.447,9.604c0.429,0.122,0.733,0.49,1.222,0.366c6.288-1.464,11.723-6.897,15.384-12.392l-0.073,0.073
			c2.505-3.753,4.126-7.411,5.434-10.828c0.521,0.547,1.027,1.112,1.524,1.695c-1.57,4.208-3.551,8.484-7.091,12.767l0.024,0.02
			c-3.714,4.463-8.529,8.277-13.92,9.275c0.366,0.123,0.732,0.305,1.16,0.367c5.366-0.795,10.043-4.545,13.605-8.942l0.024,0.02
			c3.46-4.187,5.444-8.36,7.045-12.469c1.034,1.302,2.018,2.688,2.953,4.169c0,0,1.19,2.224,2.072,3.791c0,0.001,0,0.001,0,0.001
			c0.794,1.831,1.588,3.906,1.039,5.981c0.184-0.182,0.488-0.366,0.549-0.61c0.371-1.905-0.086-3.765-0.77-5.419
			c-0.245-1.11-1.771-4.452-1.771-4.452c-1.112-1.762-2.286-3.392-3.536-4.908c0.229-0.654,0.442-1.307,0.641-1.957
			c1.098,1.426,2.149,2.972,3.178,4.662c0,0,2.336,4.184,2.667,5.261c0.064,0.205,0.117,0.317,0.162,0.355
			c0.582,1.652,0.907,3.43,0.467,5.237l0.733-1.099c0.281-2.258-0.272-4.461-1.177-6.469c-0.342-1.377-1.72-3.976-1.72-3.976
			c-1.241-2.04-2.515-3.879-3.859-5.549c0.2-0.747,0.385-1.491,0.553-2.233c1.229,1.584,2.417,3.364,3.573,5.388
			c0,0,1.744,2.962,2.527,4.773c0.797,2.204,1.646,4.608,0.895,6.966c0.305-0.488,0.732-0.854,0.732-1.465
			c0.244-2.563-0.428-5.007-1.343-7.203C190.121,44.926,190.111,44.969,190.097,45.012z M179.064,31.48
			c0.444,0.381,0.88,0.778,1.312,1.191c-0.156,0.751-0.335,1.527-0.538,2.323c-0.446-0.427-0.901-0.842-1.367-1.244
			C178.685,33,178.884,32.244,179.064,31.48z M178.772,38.604c-0.471-0.449-0.951-0.887-1.441-1.312
			c0.255-0.707,0.496-1.417,0.722-2.136c0.472,0.423,0.932,0.861,1.385,1.312C179.236,37.167,179.017,37.879,178.772,38.604z
			 M181.216,41.157c-0.496-0.566-1.007-1.113-1.527-1.645c0.246-0.706,0.473-1.399,0.679-2.08c0.504,0.543,0.995,1.105,1.479,1.69
			C181.651,39.8,181.443,40.476,181.216,41.157z M182.268,37.561c-0.482-0.558-0.974-1.099-1.478-1.618
			c0.212-0.784,0.397-1.547,0.563-2.291c0.489,0.512,0.971,1.046,1.445,1.609C182.638,36.024,182.462,36.79,182.268,37.561z"/>
		<path d="M163.017,65.514c7.447,1.405,14.896-0.365,20.695-4.456c1.1-0.978,2.931-1.77,3.113-3.357
			c-0.245-3.784-2.503-6.776-4.761-9.707C178.461,55.441,171.319,64.049,163.017,65.514z"/>
	</g>
</svg>
